<svg viewBox="0 0 1000 1000" xmlns="http://www.w3.org/2000/svg" xmlns:xlink="http://www.w3.org/1999/xlink" id="Capa_1" overflow="hidden"><g><g><path d="M192.1 114.4 41.8 114.4 41.8 150.1 97.7 150.1 97.7 297.2 136.2 297.2 136.2 150.1 192.1 150.1Z" fill="#D8D8D8"/><path d="M233.8 163.1C213.5 163.1 196.3 169.7 183.9 182.3 171.7 194.6 165.3 211.5 165.3 231.1 165.3 251.7 171.8 269.1 184.1 281.3 196.6 293.8 214.6 300.4 236.1 300.4 257.7 300.4 278.9 292.3 291.4 279.3L293.2 277.5 269.9 254.3 268.1 256.2C261.3 263.3 246.9 267.1 236.7 267.1 218.7 267.1 206 259 202.8 245.7L299 245.7 299.2 243.3C301.6 217.2 296.2 196.1 283.6 182.2 272 169.7 254.9 163.1 233.8 163.1ZM203.6 214.9C208.4 202.7 219.6 195.7 234.7 195.7 244.2 195.7 260.2 198.3 263.8 214.9L203.6 214.9Z" fill="#D8D8D8"/><path d="M415.4 179.4C406.9 169.8 393 163.9 378.1 163.9 358.6 163.8 341.3 170.2 329.3 182.1 317.2 194.2 310.7 211.4 310.7 232 310.7 253.5 317.2 271.2 329.4 283.4 341.1 295 357.4 301.1 376.7 301.1 376.9 301.1 377.1 301.1 377.3 301.1 390.5 300.9 406.5 295 415.6 284.2L416.7 297.3 450.6 297.3 450.6 166.9 416.1 166.9 415.4 179.4ZM414.5 232.1C414.5 241.4 411.5 250.1 406.1 256.5 400 263.7 391.3 267.4 380.9 267.4 360.5 267.4 346.7 253.2 346.7 232 346.7 210.9 360.4 196.8 380.9 196.8 403.9 196.7 414.5 215.1 414.5 232.1Z" fill="#D8D8D8"/><path d="M615.7 165.2C597.7 165.2 584.5 171.6 574.6 185.4 567.4 172 554.4 164.7 537.4 164.7 532.2 164.7 516.2 165.7 506.2 177.5L504.6 166.7 471.3 166.7 471.3 297.2 507.2 297.2 507.2 227.6C507.2 213.3 515.4 198.7 531 198.7 546.8 198.7 553.8 213.2 553.8 227.6L553.8 297.2 589.7 297.2 589.7 227.6C589.7 213.5 598.1 199.3 614 199.3 632.8 199.3 634.8 218.8 634.8 227.1L634.8 297.2 670.7 297.2 670.7 227.1C670.9 187.2 651.3 165.2 615.7 165.2Z" fill="#D8D8D8"/></g><path d="M175.1 351.8 122.4 433 118.9 433 65.8 351.8 65.8 475 55.2 475 55.2 336.3C60.3 336.3 62.7 336.3 67.8 336.3L120.5 417.1 172.6 336.3 185.6 336.3 185.6 475 175.2 475 175.2 351.8 175.1 351.8Z" fill="#D8D8D8"/><path d="M309.4 377.1C309.4 409.8 309.4 442.3 309.4 474.9L299.8 474.9 299.8 454.1C290.4 469.3 275.8 476.5 260.1 476.5 233 476.5 210.8 455.9 210.8 426 210.8 396.1 233 375.9 260.1 375.9 275.8 375.9 291.7 383.2 299.8 398.5L299.8 377.1 309.4 377.1 309.4 377.1ZM220.3 426C220.3 450.6 238 467 260 467 314.1 467 314.1 385.2 260 385.2 238 385.3 220.3 401.5 220.3 426Z" fill="#D8D8D8"/><path d="M353.6 347.6 353.6 377.1 386.6 377.1 386.6 385.2 353.6 385.2 353.6 444.8C353.6 458.1 356.4 467.4 371.5 467.4 376.2 467.4 381.5 465.8 386.4 463.4L389.7 471.3C383.6 474.3 377.5 476.3 371.4 476.3 350.8 476.3 344.1 464 344.1 444.8L344.1 385.2 323.5 385.2 323.5 377.1 344.1 377.1 344.1 348.6 353.6 347.6Z" fill="#D8D8D8"/><path d="M488.4 461.3C478.6 471.2 465.8 476 453 476 425.7 476 403.1 457 403.1 426.1 403.1 395.2 424.9 376.2 453 376.2 465.8 376.2 478.6 381.2 488.4 390.9L482.1 397C474.2 389.1 463.4 385.3 453 385.3 431 385.3 412.5 399.8 412.5 426.1 412.5 452.4 431 466.9 453 466.9 463.4 466.9 474 462.7 481.9 454.8L488.4 461.3Z" fill="#D8D8D8"/><path d="M517.3 336.3 517.3 395.3C525.2 381.2 538.7 375.9 552.3 375.7 579.4 375.7 593 393.3 593 418.9L593 474.9 583.6 474.9 583.6 418.9C583.6 398.7 574.2 385 552.3 385 531.9 385 517.7 400.8 517.7 421.2L517.7 475 508.1 475 508.1 336.3 517.3 336.3Z" fill="#D8D8D8"/><path d="M652.1 496.9 631 475.8 631 478.2 614.9 478.2 614.9 459.7 596.2 441 596.2 478.2 580.3 478.2 580.3 425.1 557.8 402.6 521 439.5 521 441.5 605.4 525.9 652.6 573.1Z" fill="#D8D8D8"/><path d="M630.9 345.3C630.9 355.6 615.4 355.6 615.4 345.3 615.4 335 630.9 335 630.9 345.3ZM618.2 376.7 618.2 475 627.8 475 627.8 376.8 618.2 376.7 618.2 376.7Z" fill="#D8D8D8"/><path d="M920.3 233.9 654.7 499.5 652.1 496.9 652.6 573.1 654.7 575.2 704.1 525.9 958.2 271.7Z" fill="#D8D8D8"/><path d="M699.3 375.4C685.7 375.6 672.2 381.1 664.7 394.6L664.7 377.2 655.3 377.2 655.3 475 664.9 475 664.9 420.5C664.9 400.3 678.9 385.1 698.9 384.9 719.1 384.7 732.4 395.7 733.4 416.2L742 407.6C737.9 387.1 721.6 375.4 699.3 375.4Z" fill="#D8D8D8"/><path d="M845.8 423.1C845.8 443.3 829.5 460.7 809.4 460.7 798.9 460.7 790.2 456.8 784.1 450.5L777.1 457.5C784.9 465.5 796 470.4 809.5 470.4 827.6 470.4 846.3 478.7 846.3 499.7 846.3 520.5 829 529.2 809.5 529.2 790 529.2 773.1 519.7 773.1 499.7L763.5 499.7C763.5 524.5 783.7 538.7 809.5 538.7 835.2 538.7 855.7 526 855.7 499.7 855.7 482.9 846.3 470.8 829.2 464.6 845.3 457.3 855.3 440 855.3 423 855.3 407.7 850.5 398 844 390.5L837.4 397.1C842.6 403.5 845.8 412.2 845.8 423.1Z" fill="#D8D8D8"/></g></svg>