<svg width="439.333" height="98" viewBox="0 0 439.333 98" xmlns="http://www.w3.org/2000/svg" xmlns:xlink="http://www.w3.org/1999/xlink" id="Layer_1" overflow="hidden"><g><defs><rect x="0" y="0" width="439.333" height="98" id="SVGID_1_"/></defs><clipPath id="SVGID_2_"><use width="100%" height="100%" xlink:href="#SVGID_1_" overflow="visible"></use></clipPath><path d="M49.011 20.568C43.097 20.568 38.302 25.363 38.302 31.277 38.302 37.192 43.097 41.986 49.011 41.986 54.925 41.986 59.72 37.192 59.72 31.277 59.72 25.363 54.925 20.568 49.011 20.568" fill="#51AAAB" fill-rule="evenodd" clip-rule="evenodd" clip-path="url(#SVGID_2_)"/><path d="M19.409 50.039C19.409 55.953 24.204 60.748 30.118 60.748 36.033 60.748 40.827 55.953 40.827 50.039 40.827 44.124 36.033 39.33 30.118 39.33 24.204 39.33 19.409 44.125 19.409 50.039" fill="#744D60" fill-rule="evenodd" clip-rule="evenodd" clip-path="url(#SVGID_2_)"/><path d="M78.534 50.039C78.534 55.953 73.739 60.748 67.825 60.748 61.91 60.748 57.116 55.953 57.116 50.039 57.116 44.124 61.91 39.33 67.825 39.33 73.739 39.33 78.534 44.125 78.534 50.039" fill="#E5C82A" fill-rule="evenodd" clip-rule="evenodd" clip-path="url(#SVGID_2_)"/><path d="M49.011 79.693C43.097 79.693 38.302 74.898 38.302 68.984 38.302 63.069 43.097 58.275 49.011 58.275 54.925 58.275 59.72 63.069 59.72 68.984 59.72 74.898 54.925 79.693 49.011 79.693" fill="#738D57" fill-rule="evenodd" clip-rule="evenodd" clip-path="url(#SVGID_2_)"/><path d="M26.249 12.399C23.879 12.399 21.951 14.327 21.951 16.697 21.951 19.068 23.879 20.996 26.249 20.996 28.619 20.996 30.547 19.068 30.547 16.697 30.547 14.328 28.619 12.399 26.249 12.399" fill="#51AAAB" clip-path="url(#SVGID_2_)"/><path d="M40.628 6.185C38.258 6.185 36.33 8.113 36.33 10.483 36.33 12.854 38.258 14.782 40.628 14.782 42.998 14.782 44.926 12.854 44.926 10.483 44.926 8.113 42.998 6.185 40.628 6.185" fill="#51AAAB" clip-path="url(#SVGID_2_)"/><path d="M57.336 6.185C54.966 6.185 53.038 8.113 53.038 10.483 53.038 12.854 54.966 14.782 57.336 14.782 59.706 14.782 61.634 12.854 61.634 10.483 61.634 8.113 59.706 6.185 57.336 6.185" fill="#51AAAB" clip-path="url(#SVGID_2_)"/><path d="M71.694 12.399C69.324 12.399 67.396 14.327 67.396 16.697 67.396 19.068 69.324 20.996 71.694 20.996 74.064 20.996 75.992 19.068 75.992 16.697 75.992 14.328 74.064 12.399 71.694 12.399" fill="#51AAAB" clip-path="url(#SVGID_2_)"/><path d="M26.249 79.266C23.879 79.266 21.951 81.194 21.951 83.564 21.951 85.935 23.879 87.863 26.249 87.863 28.619 87.863 30.547 85.935 30.547 83.564 30.547 81.193 28.619 79.266 26.249 79.266" fill="#738D57" clip-path="url(#SVGID_2_)"/><path d="M40.628 85.479C38.258 85.479 36.33 87.408 36.33 89.778 36.33 92.147 38.258 94.077 40.628 94.077 42.998 94.077 44.926 92.147 44.926 89.778 44.926 87.408 42.998 85.479 40.628 85.479" fill="#738D57" clip-path="url(#SVGID_2_)"/><path d="M57.336 85.479C54.966 85.479 53.038 87.408 53.038 89.778 53.038 92.147 54.966 94.077 57.336 94.077 59.706 94.077 61.634 92.147 61.634 89.778 61.634 87.408 59.706 85.479 57.336 85.479" fill="#738D57" clip-path="url(#SVGID_2_)"/><path d="M71.694 79.266C69.324 79.266 67.396 81.194 67.396 83.564 67.396 85.935 69.324 87.863 71.694 87.863 74.064 87.863 75.992 85.935 75.992 83.564 75.992 81.193 74.064 79.266 71.694 79.266" fill="#738D57" clip-path="url(#SVGID_2_)"/><path d="M15.539 68.555C13.169 68.555 11.241 70.483 11.241 72.853 11.241 75.224 13.169 77.153 15.539 77.153 17.909 77.153 19.837 75.224 19.837 72.853 19.836 70.482 17.908 68.555 15.539 68.555" fill="#744D60" clip-path="url(#SVGID_2_)"/><path d="M13.623 58.474C13.623 56.105 11.695 54.176 9.325 54.176 6.954 54.176 5.026 56.105 5.026 58.474 5.026 60.844 6.954 62.773 9.325 62.773 11.694 62.772 13.623 60.844 13.623 58.474" fill="#744D60" clip-path="url(#SVGID_2_)"/><path d="M9.324 46.065C11.694 46.065 13.622 44.137 13.622 41.767 13.622 39.396 11.694 37.468 9.324 37.468 6.954 37.468 5.026 39.396 5.026 41.767 5.026 44.137 6.954 46.065 9.324 46.065" fill="#744D60" clip-path="url(#SVGID_2_)"/><path d="M15.539 23.11C13.169 23.11 11.241 25.038 11.241 27.408 11.241 29.778 13.169 31.707 15.539 31.707 17.909 31.707 19.837 29.778 19.837 27.408 19.836 25.038 17.908 23.11 15.539 23.11" fill="#744D60" clip-path="url(#SVGID_2_)"/><path d="M82.404 68.555C80.034 68.555 78.106 70.483 78.106 72.853 78.106 75.224 80.034 77.153 82.404 77.153 84.774 77.153 86.702 75.224 86.702 72.853 86.703 70.482 84.774 68.555 82.404 68.555" fill="#E5C82A" clip-path="url(#SVGID_2_)"/><path d="M88.619 54.176C86.249 54.176 84.321 56.104 84.321 58.474 84.321 60.845 86.249 62.773 88.619 62.773 90.989 62.773 92.917 60.845 92.917 58.474 92.917 56.104 90.989 54.176 88.619 54.176" fill="#E5C82A" clip-path="url(#SVGID_2_)"/><path d="M84.32 41.767C84.32 44.137 86.248 46.065 88.618 46.065 90.989 46.065 92.917 44.137 92.917 41.767 92.917 39.397 90.989 37.469 88.618 37.469 86.249 37.468 84.32 39.396 84.32 41.767" fill="#E5C82A" clip-path="url(#SVGID_2_)"/><path d="M82.404 31.707C84.774 31.707 86.702 29.779 86.702 27.409 86.702 25.039 84.774 23.11 82.404 23.11 80.034 23.11 78.106 25.039 78.106 27.409 78.106 29.779 80.035 31.707 82.404 31.707" fill="#E5C82A" clip-path="url(#SVGID_2_)"/><path d="M185.308 48.033C183.124 49.878 180.454 50.8 177.203 50.8 175.212 50.8 173.513 50.411 172.057 49.635 171.426 49.295 171.135 48.955 171.135 48.567 171.135 48.422 171.184 48.227 171.281 48.033L171.572 47.402C171.62 47.159 171.766 47.062 172.009 47.062 172.3 47.062 172.64 47.159 173.125 47.451 173.902 47.887 174.776 48.082 175.795 48.082 177.494 48.082 178.902 47.451 179.92 46.237 180.94 45.024 181.474 43.374 181.474 41.384 181.474 39.248 180.794 37.549 179.484 36.239 178.173 34.976 176.426 34.345 174.193 34.345 173.028 34.345 172.204 34.491 171.717 34.831 171.281 35.122 170.99 35.559 170.844 36.141 170.699 36.724 170.601 37.84 170.601 39.539L170.553 43.956 170.553 55.072C170.553 56.916 170.65 58.372 170.844 59.489 171.038 60.508 171.62 61.284 172.64 61.673 173.125 61.819 174.096 62.013 175.601 62.255 176.134 62.304 176.377 62.595 176.377 63.08L176.377 63.711C176.377 64.342 176.232 64.488 175.552 64.488 175.552 64.488 174.678 64.44 172.834 64.342 171.62 64.294 170.116 64.245 168.32 64.245 167.252 64.245 165.747 64.294 163.855 64.342 162.01 64.441 160.796 64.488 160.263 64.488L160.117 64.488C159.535 64.488 159.244 64.294 159.244 63.857L159.244 63.225C159.244 62.643 159.874 62.303 161.136 62.158 162.252 62.06 162.981 61.575 163.37 60.702 163.757 59.828 163.952 58.226 163.952 55.946L163.952 41.286C163.952 39.782 163.952 38.617 163.855 37.743 163.708 35.947 162.738 34.928 160.845 34.734 159.729 34.637 159.195 34.248 159.195 33.666L159.195 32.792C159.195 32.355 159.583 32.113 160.311 32.113 161.087 32.113 161.865 32.113 162.69 32.21 164.34 32.307 165.651 32.404 166.621 32.404 167.252 32.404 168.999 32.258 171.864 32.064 174.29 31.87 175.989 31.773 176.912 31.773 180.454 31.773 183.27 32.647 185.406 34.345 187.541 36.044 188.609 38.277 188.609 41.092 188.608 43.859 187.541 46.14 185.308 48.033" fill="#4E4D43" clip-path="url(#SVGID_2_)"/><path d="M206.079 62.984C204.089 64.39 201.856 65.07 199.332 65.07 196.226 65.07 193.702 64.1 191.712 62.11 189.771 60.119 188.751 57.547 188.751 54.489 188.751 51.138 189.867 48.276 192.003 45.994 194.188 43.665 196.857 42.5 200.012 42.5 202.778 42.5 205.06 43.325 206.855 45.072 208.604 46.771 209.525 48.955 209.525 51.576 209.525 52.256 209.38 52.694 208.991 52.839 208.798 52.937 208.264 52.985 207.39 52.985L195.644 52.985C195.062 52.985 194.722 53.178 194.624 53.518 194.527 53.711 194.527 54.002 194.527 54.342 194.527 56.237 195.207 57.886 196.565 59.342 197.925 60.749 199.479 61.479 201.322 61.479 203.118 61.479 204.721 60.896 206.177 59.731L207.924 58.323C208.118 58.227 208.264 58.129 208.458 58.129 208.651 58.129 208.798 58.228 208.943 58.323L209.234 58.518 209.283 58.518C209.477 58.711 209.574 58.906 209.574 59.149 209.574 60.07 208.409 61.333 206.079 62.984M202.293 46.237C201.468 45.315 200.497 44.878 199.332 44.878 198.119 44.878 197.003 45.412 196.08 46.431 195.158 47.451 194.673 48.615 194.673 49.975 194.673 50.363 194.867 50.556 195.255 50.654L196.323 50.654 201.856 50.654C202.585 50.654 203.022 50.606 203.216 50.508 203.458 50.411 203.604 50.024 203.604 49.442 203.604 48.179 203.167 47.159 202.293 46.237" fill="#4E4D43" clip-path="url(#SVGID_2_)"/><path d="M229.86 47.791C228.792 49.005 227.965 49.636 227.383 49.636 226.947 49.636 226.509 49.344 226.122 48.811 225.927 48.568 225.684 48.228 225.442 47.937 225.052 47.5 224.568 47.306 223.986 47.306 222.336 47.306 221.509 49.006 221.509 52.451L221.509 57.84C221.509 59.15 221.655 60.071 221.995 60.606 222.432 61.335 223.451 61.868 225.101 62.111 225.877 62.257 226.266 62.597 226.216 63.132L226.168 63.713C226.12 64.247 225.731 64.489 225.003 64.489L224.615 64.489 222.479 64.344C221.507 64.295 219.955 64.246 217.771 64.246 216.072 64.246 214.567 64.344 213.209 64.488L212.82 64.488C212.286 64.488 211.995 64.246 211.995 63.712L211.995 63.13C211.995 62.692 212.286 62.353 212.82 62.256 213.985 61.965 214.761 61.527 215.15 60.993 215.538 60.41 215.732 59.392 215.732 57.983L215.732 51.576C215.732 50.801 215.732 50.168 215.684 49.829 215.586 48.519 214.956 47.79 213.791 47.644 212.771 47.499 212.189 47.353 212.044 47.208 211.946 47.111 211.898 46.916 211.898 46.577L211.898 46.091C211.898 45.412 212.238 45.315 213.111 45.315L213.694 45.315C215.295 45.315 216.848 44.781 218.304 43.665 219.227 42.936 219.907 42.597 220.294 42.597L220.684 42.597C220.83 42.597 220.925 42.597 220.975 42.645 221.169 42.742 221.266 42.839 221.266 42.936 221.266 43.034 221.315 43.228 221.315 43.616L221.315 46.383C221.752 45.849 222.237 45.315 222.673 44.83 224.032 43.325 225.441 42.597 226.897 42.597 227.917 42.597 228.79 42.936 229.567 43.567 230.392 44.198 230.78 44.975 230.78 45.8 230.782 46.383 230.491 47.062 229.86 47.791" fill="#4E4D43" clip-path="url(#SVGID_2_)"/><path d="M247.138 62.983C245.489 64.39 243.45 65.07 240.974 65.07 239.81 65.07 238.595 64.924 237.333 64.632L235.634 64.245C235.343 64.195 235.101 64.146 234.762 64.146 234.471 64.146 234.179 64.245 233.985 64.389L233.5 64.778C233.306 64.924 233.112 65.02 232.918 65.02 232.772 65.02 232.627 64.971 232.481 64.875L232.14 64.631C231.898 64.438 231.752 64.244 231.752 63.953 231.752 63.71 231.898 63.272 232.092 62.641 232.286 62.107 232.383 61.524 232.335 60.992L232.14 58.176C232.14 57.351 232.481 56.866 233.112 56.72L233.5 56.623C233.452 56.623 233.549 56.575 233.743 56.575 234.227 56.575 234.568 57.107 234.665 58.224 234.81 59.486 235.442 60.505 236.606 61.331 237.772 62.204 239.179 62.592 240.782 62.592 243.498 62.592 244.858 61.622 244.858 59.777 244.858 58.904 244.517 58.224 243.886 57.69 243.255 57.206 241.946 56.67 240.003 56.136 237.481 55.409 235.683 54.632 234.616 53.758 233.208 52.642 232.528 51.137 232.528 49.293 232.528 47.254 233.208 45.604 234.664 44.342 236.12 43.08 238.013 42.449 240.294 42.449 240.781 42.449 241.46 42.497 242.382 42.643L244.421 42.934C244.858 43.031 245.149 43.031 245.149 43.031 245.586 43.031 246.168 42.934 246.75 42.643 247.334 42.4 247.77 42.254 247.916 42.254 248.11 42.254 248.256 42.303 248.354 42.497L248.547 42.74C248.694 42.934 248.789 43.128 248.789 43.274 248.789 43.419 248.694 43.759 248.547 44.196 248.354 44.73 248.256 45.41 248.256 46.234 248.256 46.332 248.305 46.671 248.305 47.206 248.305 47.739 248.354 48.176 248.354 48.613L248.354 48.807C248.354 49.584 248.014 49.972 247.383 49.972L246.848 50.021C246.508 50.021 246.266 49.584 246.119 48.71 245.974 47.594 245.344 46.671 244.325 45.943 243.353 45.167 242.187 44.778 240.877 44.778 238.645 44.778 237.092 45.895 237.092 47.448 237.092 48.273 237.482 49.002 238.256 49.487 239.034 49.972 240.586 50.555 242.868 51.137 244.616 51.623 245.926 52.108 246.703 52.544 248.644 53.71 249.616 55.409 249.616 57.69 249.615 59.829 248.788 61.576 247.138 62.983" fill="#4E4D43" clip-path="url(#SVGID_2_)"/><path d="M273.688 61.867C271.358 64.051 268.348 65.119 264.755 65.119 261.311 65.119 258.446 64.099 256.212 62.013 253.932 59.877 252.816 57.256 252.816 54.052 252.816 50.655 254.028 47.888 256.407 45.703 258.786 43.519 261.843 42.451 265.581 42.451 268.978 42.451 271.745 43.519 273.978 45.606 276.161 47.742 277.278 50.411 277.278 53.712 277.278 57.013 276.114 59.731 273.688 61.867M269.464 47.742C268.153 45.849 266.503 44.878 264.61 44.878 262.862 44.878 261.454 45.606 260.339 47.111 259.272 48.519 258.737 50.46 258.737 52.79 258.737 55.557 259.368 57.935 260.679 59.828 262.037 61.721 263.64 62.692 265.58 62.692 267.326 62.692 268.734 61.963 269.804 60.507 270.918 59.051 271.453 57.158 271.453 54.78 271.454 52.014 270.775 49.683 269.464 47.742" fill="#4E4D43" clip-path="url(#SVGID_2_)"/><path d="M308.194 63.662C308.194 64.196 307.903 64.439 307.321 64.439 307.418 64.439 306.69 64.391 305.041 64.293 304.506 64.293 303.633 64.244 302.515 64.244 299.993 64.244 298.293 64.293 297.468 64.39 297.177 64.39 296.739 64.438 296.157 64.438 295.625 64.438 295.332 64.195 295.332 63.661L295.332 63.13C295.332 62.887 295.381 62.74 295.478 62.644 295.577 62.596 296.109 62.352 297.081 62.014 298.148 61.624 298.682 60.314 298.682 58.179L298.682 52.741C298.682 48.227 297.178 45.994 294.217 45.994 292.809 45.994 291.645 46.528 290.675 47.596 289.704 48.664 289.217 50.168 289.217 52.159L289.217 58.906C289.217 60.75 289.848 61.818 291.11 62.109 292.034 62.304 292.469 62.595 292.469 62.983L292.469 63.662C292.469 64.196 292.13 64.439 291.449 64.439 290.818 64.439 290.286 64.391 289.8 64.391 288.393 64.293 286.985 64.245 285.528 64.245 284.315 64.245 283.151 64.294 281.985 64.391 281.596 64.391 281.063 64.439 280.384 64.439 279.946 64.439 279.753 64.245 279.753 63.856L279.753 63.274C279.753 62.837 279.899 62.498 280.286 62.351 280.384 62.304 280.82 62.205 281.452 62.109 282.423 61.964 283.053 61.333 283.296 60.313 283.442 59.876 283.49 58.906 283.49 57.449L283.49 52.159C283.49 50.509 283.296 49.295 282.859 48.518 282.615 48.081 281.935 47.79 280.771 47.693 280.091 47.644 279.752 47.305 279.752 46.771L279.752 46.334C279.752 45.703 279.994 45.558 280.869 45.558 281.791 45.558 282.809 45.315 283.925 44.878 285.091 44.441 286.013 43.859 286.742 43.227 287.274 42.742 287.713 42.499 288.004 42.499L288.196 42.499 288.634 42.548C288.925 42.548 289.072 42.888 289.072 43.519L289.072 46.188C289.896 45.218 290.675 44.49 291.4 44.053 293.05 43.034 294.799 42.499 296.691 42.499 299.07 42.499 300.963 43.325 302.372 45.023 303.73 46.625 304.411 49.1 304.411 52.353L304.411 57.983C304.411 59.974 304.702 61.187 305.283 61.624 305.574 61.866 306.303 62.109 307.467 62.352 307.954 62.45 308.196 62.644 308.196 62.935L308.196 63.662Z" fill="#4E4D43" clip-path="url(#SVGID_2_)"/><path d="M329.937 63.13C328.288 64.44 326.735 65.07 325.375 65.07 324.309 65.07 323.482 64.73 322.852 64.051 322.463 63.711 322.076 63.03 321.736 62.06 321.055 62.643 320.378 63.129 319.699 63.565 318.143 64.586 316.494 65.119 314.796 65.119 313.146 65.119 311.835 64.634 310.767 63.712 309.7 62.74 309.166 61.575 309.166 60.119 309.166 58.032 310.281 56.187 312.466 54.587 314.65 52.984 317.66 51.868 321.396 51.189L321.396 49.927C321.396 46.966 319.941 45.461 316.98 45.461 315.183 45.461 314.212 45.995 314.068 47.112L313.922 48.277C313.827 49.053 313.34 49.441 312.467 49.441 312.03 49.441 311.641 49.15 311.35 48.616L310.817 47.645C310.623 47.257 310.526 47.014 310.526 46.723 310.526 45.801 311.885 44.733 314.651 43.568 316.399 42.84 318.145 42.452 319.893 42.452 321.69 42.452 323.292 42.888 324.602 43.811 326.299 44.976 327.126 47.014 327.126 49.927 327.126 50.801 327.077 51.576 327.077 52.305L326.883 57.208C326.883 59.538 327.465 60.751 328.581 60.751 329.018 60.751 329.551 60.556 330.184 60.217 330.524 60.023 330.766 59.926 330.96 59.926 331.057 59.926 331.251 60.023 331.397 60.169L331.639 60.556C331.786 60.751 331.833 60.896 331.833 60.945 331.83 61.382 331.199 62.158 329.937 63.13M321.394 53.615C319.405 53.857 317.755 54.44 316.589 55.411 315.376 56.334 314.746 57.449 314.746 58.808 314.746 60.313 315.91 61.429 317.609 61.429 318.481 61.429 319.404 61.09 320.328 60.362 321.054 59.828 321.393 59.052 321.393 57.983L321.393 53.615Z" fill="#4E4D43" clip-path="url(#SVGID_2_)"/><path d="M344.981 63.469C344.981 64.342 344.69 64.441 344.01 64.441 343.331 64.441 342.895 64.391 342.555 64.391 341.631 64.294 340.516 64.245 339.206 64.245 336.437 64.245 334.06 64.44 332.555 64.44 332.022 64.44 331.781 64.294 331.781 63.954L331.781 63.371C331.781 62.789 332.121 62.401 332.846 62.304 334.836 62.013 335.565 61.189 335.615 59.003L335.664 56.382 335.664 41.384C335.664 38.811 335.468 37.209 335.128 36.627 334.742 35.996 333.916 35.656 332.703 35.607 332.072 35.607 331.781 35.219 331.781 34.54L331.781 34.2C331.781 33.715 332.072 33.472 332.654 33.472L332.944 33.472C333.043 33.52 333.235 33.52 333.477 33.52 335.807 33.52 337.506 32.938 338.624 31.773L339.448 30.899C339.836 30.511 340.127 30.317 340.419 30.317 340.37 30.317 340.516 30.317 340.856 30.414L341.34 30.511C341.68 30.608 341.876 30.802 341.876 31.094 341.876 31.191 341.876 31.433 341.778 31.773 341.631 32.598 341.487 33.375 341.437 34.151 341.339 35.316 341.291 37.549 341.291 40.801L341.291 56.576C341.291 58.129 341.388 59.343 341.535 60.168 341.777 61.43 342.554 62.11 343.815 62.206 344.59 62.304 344.979 62.546 344.979 62.984L344.979 63.469Z" fill="#4E4D43" clip-path="url(#SVGID_2_)"/><path d="M359.445 63.663C359.445 64.196 358.96 64.439 358.037 64.439 357.406 64.439 356.872 64.39 356.533 64.39 355.464 64.294 354.009 64.245 352.212 64.245 351.388 64.245 350.32 64.294 349.009 64.341L346.97 64.439C346.778 64.439 346.63 64.39 346.535 64.39 346.339 64.341 346.29 64.147 346.29 63.856L346.29 63.322C346.29 62.79 346.63 62.449 347.359 62.303 348.475 62.06 349.203 61.624 349.542 61.041 349.787 60.603 349.931 59.778 349.931 58.565L349.981 53.031C349.981 51.042 349.834 49.586 349.543 48.76 349.252 47.838 348.573 47.401 347.602 47.401L347.41 47.449 347.214 47.449C346.39 47.449 346.292 47.352 346.292 46.624L346.292 46.139C346.292 45.702 346.39 45.411 346.537 45.314 346.729 45.216 347.214 45.168 347.992 45.168 348.72 45.119 349.4 44.974 350.08 44.731 351.05 44.391 351.826 44.1 352.41 43.76L354.011 42.693C354.157 42.547 354.351 42.498 354.544 42.498 354.544 42.498 354.738 42.498 355.078 42.595L355.515 42.741C355.806 42.838 355.953 43.129 355.953 43.615L355.953 44.051C355.662 46.042 355.515 48.663 355.563 52.012L355.613 57.302C355.613 59.244 355.805 60.506 356.145 61.04 356.486 61.574 357.213 62.011 358.377 62.254 359.106 62.399 359.446 62.69 359.446 63.128L359.446 63.663ZM354.349 37.695C353.425 38.471 352.409 38.86 351.29 38.86 349.689 38.86 348.863 38.18 348.863 36.773 348.863 35.802 349.348 34.88 350.271 34.103 351.193 33.278 352.26 32.89 353.377 32.89 354.93 32.89 355.705 33.569 355.705 34.977 355.706 35.996 355.271 36.87 354.349 37.695" fill="#4E4D43" clip-path="url(#SVGID_2_)"/><path d="M375.509 62.935C374.151 64.391 372.356 65.121 370.218 65.121 368.229 65.121 366.579 64.489 365.22 63.226 364.444 62.498 363.958 61.577 363.714 60.459 363.57 59.829 363.522 58.712 363.522 57.207L363.522 46.141C363.522 45.704 363.231 45.509 362.649 45.509L360.949 45.509C360.172 45.509 359.783 45.218 359.783 44.636L359.783 44.296C359.783 43.859 360.172 43.471 360.949 43.228 363.619 42.306 365.61 40.607 366.918 38.083 367.307 37.307 367.793 36.918 368.326 36.918L368.617 36.918C368.862 36.918 369.055 36.967 369.153 37.015 369.345 37.112 369.444 37.598 369.444 38.423L369.444 43.082 373.326 43.082C373.569 43.082 373.957 43.082 374.395 42.985 374.927 42.937 375.268 42.888 375.509 42.888 375.849 42.888 375.995 43.131 375.995 43.519L375.995 44.636C375.995 45.315 375.898 45.606 375.169 45.606 374.977 45.606 374.829 45.606 374.734 45.558 374.587 45.558 373.762 45.509 373.277 45.509L369.443 45.509 369.443 55.947C369.443 58.421 369.635 59.974 370.073 60.605 370.511 61.286 371.238 61.625 372.159 61.625 372.548 61.625 373.034 61.479 373.616 61.286 374.247 61.091 374.685 60.946 374.927 60.946 375.12 60.946 375.268 60.995 375.365 61.042 375.414 61.091 375.51 61.14 375.608 61.237L375.8 61.479C375.946 61.625 375.995 61.82 375.995 62.013 375.995 62.304 375.849 62.595 375.509 62.935" fill="#4E4D43" clip-path="url(#SVGID_2_)"/><path d="M390.264 63.663C390.264 64.196 389.779 64.439 388.856 64.439 388.225 64.439 387.691 64.39 387.352 64.39 386.283 64.294 384.828 64.245 383.031 64.245 382.207 64.245 381.139 64.294 379.828 64.341L377.789 64.439C377.597 64.439 377.449 64.39 377.354 64.39 377.158 64.341 377.109 64.147 377.109 63.856L377.109 63.322C377.109 62.79 377.449 62.449 378.178 62.303 379.294 62.06 380.022 61.624 380.361 61.041 380.606 60.603 380.75 59.778 380.75 58.565L380.799 53.031C380.799 51.042 380.653 49.586 380.361 48.76 380.07 47.838 379.391 47.401 378.42 47.401L378.228 47.449 378.032 47.449C377.208 47.449 377.11 47.352 377.11 46.624L377.11 46.139C377.11 45.702 377.208 45.411 377.355 45.314 377.547 45.216 378.032 45.168 378.81 45.168 379.538 45.119 380.217 44.974 380.898 44.731 381.868 44.391 382.644 44.1 383.228 43.76L384.829 42.693C384.975 42.547 385.169 42.498 385.362 42.498 385.362 42.498 385.556 42.498 385.896 42.595L386.333 42.741C386.624 42.838 386.771 43.129 386.771 43.615L386.771 44.051C386.48 46.042 386.333 48.663 386.381 52.012L386.431 57.302C386.431 59.244 386.623 60.506 386.963 61.04 387.304 61.574 388.031 62.011 389.195 62.254 389.924 62.399 390.264 62.69 390.264 63.128L390.264 63.663ZM385.167 37.695C384.243 38.471 383.227 38.86 382.108 38.86 380.506 38.86 379.681 38.18 379.681 36.773 379.681 35.802 380.166 34.88 381.088 34.103 382.011 33.278 383.078 32.89 384.195 32.89 385.748 32.89 386.523 33.569 386.523 34.977 386.524 35.996 386.089 36.87 385.167 37.695" fill="#4E4D43" clip-path="url(#SVGID_2_)"/><path d="M409.53 62.984C407.54 64.39 405.308 65.07 402.784 65.07 399.678 65.07 397.153 64.1 395.163 62.11 393.223 60.119 392.202 57.547 392.202 54.489 392.202 51.138 393.319 48.276 395.454 45.994 397.641 43.665 400.309 42.5 403.465 42.5 406.23 42.5 408.512 43.325 410.308 45.072 412.057 46.771 412.978 48.955 412.978 51.576 412.978 52.256 412.832 52.694 412.443 52.839 412.251 52.937 411.717 52.985 410.842 52.985L399.096 52.985C398.514 52.985 398.174 53.178 398.075 53.518 397.979 53.711 397.979 54.002 397.979 54.342 397.979 56.237 398.659 57.886 400.016 59.342 401.376 60.749 402.931 61.479 404.774 61.479 406.569 61.479 408.173 60.896 409.628 59.731L411.376 58.323C411.568 58.227 411.716 58.129 411.908 58.129 412.101 58.129 412.249 58.228 412.394 58.323L412.685 58.518 412.734 58.518C412.928 58.711 413.025 58.906 413.025 59.149 413.026 60.07 411.86 61.333 409.53 62.984M405.745 46.237C404.92 45.315 403.948 44.878 402.784 44.878 401.571 44.878 400.454 45.412 399.532 46.431 398.61 47.451 398.125 48.615 398.125 49.975 398.125 50.363 398.319 50.556 398.706 50.654L399.774 50.654 405.308 50.654C406.036 50.654 406.474 50.606 406.667 50.508 406.908 50.411 407.056 50.024 407.056 49.442 407.057 48.179 406.618 47.159 405.745 46.237" fill="#4E4D43" clip-path="url(#SVGID_2_)"/><path d="M430.981 62.983C429.332 64.39 427.293 65.07 424.817 65.07 423.654 65.07 422.438 64.924 421.176 64.632L419.477 64.245C419.186 64.195 418.944 64.146 418.604 64.146 418.313 64.146 418.022 64.245 417.828 64.389L417.343 64.778C417.15 64.924 416.955 65.02 416.761 65.02 416.615 65.02 416.47 64.971 416.324 64.875L415.983 64.631C415.742 64.438 415.594 64.244 415.594 63.953 415.594 63.71 415.741 63.272 415.934 62.641 416.129 62.107 416.225 61.524 416.178 60.992L415.983 58.176C415.983 57.351 416.324 56.866 416.955 56.72L417.343 56.623C417.294 56.623 417.392 56.575 417.586 56.575 418.072 56.575 418.412 57.107 418.507 58.224 418.654 59.486 419.285 60.505 420.449 61.331 421.615 62.204 423.022 62.592 424.625 62.592 427.341 62.592 428.701 61.622 428.701 59.777 428.701 58.904 428.36 58.224 427.729 57.69 427.098 57.206 425.789 56.67 423.846 56.136 421.324 55.409 419.526 54.632 418.46 53.758 417.051 52.642 416.372 51.137 416.372 49.293 416.372 47.254 417.051 45.604 418.506 44.342 419.963 43.08 421.856 42.449 424.137 42.449 424.624 42.449 425.303 42.497 426.225 42.643L428.264 42.934C428.701 43.031 428.992 43.031 428.992 43.031 429.429 43.031 430.011 42.934 430.593 42.643 431.177 42.4 431.614 42.254 431.759 42.254 431.953 42.254 432.099 42.303 432.197 42.497L432.389 42.74C432.536 42.934 432.631 43.128 432.631 43.274 432.631 43.419 432.536 43.759 432.389 44.196 432.197 44.73 432.098 45.41 432.098 46.234 432.098 46.332 432.147 46.671 432.147 47.206 432.147 47.739 432.197 48.176 432.197 48.613L432.197 48.807C432.197 49.584 431.856 49.972 431.225 49.972L430.69 50.021C430.35 50.021 430.108 49.584 429.961 48.71 429.816 47.594 429.186 46.671 428.167 45.943 427.196 45.167 426.03 44.778 424.719 44.778 422.488 44.778 420.934 45.895 420.934 47.448 420.934 48.273 421.324 49.002 422.098 49.487 422.876 49.972 424.428 50.555 426.71 51.137 428.458 51.623 429.768 52.108 430.545 52.544 432.487 53.71 433.458 55.409 433.458 57.69 433.459 59.829 432.632 61.576 430.981 62.983" fill="#4E4D43" clip-path="url(#SVGID_2_)"/><path d="M128.733 63.462C128.733 64.287 128.491 64.483 127.326 64.483 126.937 64.483 126.257 64.434 125.287 64.434 122.131 64.336 120.336 64.288 119.997 64.288L115.676 64.385C114.706 64.385 113.589 64.435 112.327 64.484L112.036 64.484C111.211 64.484 110.823 64.289 110.823 63.853L110.823 63.124C110.823 62.493 111.259 62.153 112.181 62.105 114.171 62.007 115.482 61.523 116.016 60.697 116.405 60.067 116.598 58.367 116.598 55.65L116.598 46.184C116.598 42.883 116.55 40.893 116.405 40.117 116.258 39.389 115.919 39.001 115.337 39.001 115.046 39.001 114.56 39.097 113.832 39.243L112.715 39.486C111.988 39.631 111.599 39.729 111.502 39.729 111.065 39.729 110.823 39.486 110.823 38.952L110.823 38.369C110.823 37.836 111.211 37.399 111.988 37.156 115.919 35.845 118.783 34.244 120.675 32.399 121.307 31.768 121.793 31.477 122.18 31.477 122.423 31.477 122.666 31.526 122.909 31.623L123.151 31.72C123.442 31.865 123.588 32.011 123.588 32.351 123.588 32.399 123.54 32.545 123.491 32.739 123.005 34.826 122.763 37.787 122.763 41.621L122.763 55.989C122.763 58.464 123.005 60.018 123.394 60.697 123.976 61.57 125.336 62.057 127.52 62.105 128.344 62.153 128.733 62.396 128.733 62.979L128.733 63.462Z" fill="#734D5F" clip-path="url(#SVGID_2_)"/><path d="M148.583 61.667C146.351 63.898 143.681 64.968 140.429 64.968 137.031 64.968 134.265 63.851 132.178 61.667 130.042 59.434 129.022 56.569 129.022 53.026 129.022 48.172 131.061 43.561 135.187 39.241 138.196 36.086 141.739 33.756 145.913 32.203 148.098 31.378 149.603 30.99 150.379 30.99 150.719 30.99 150.913 31.135 151.107 31.426L151.253 31.669C151.302 31.766 151.35 31.911 151.35 32.009 151.35 32.3 151.107 32.591 150.622 32.737L148.826 33.367C146.399 34.193 144.166 35.455 142.128 37.105 141.351 37.736 140.574 38.512 139.798 39.386 138.729 40.6 137.759 42.201 136.886 44.192 138.391 43.464 139.943 43.124 141.594 43.124 144.555 43.124 146.981 44.143 148.923 46.133 150.913 48.074 151.884 50.55 151.884 53.559 151.884 56.764 150.768 59.481 148.583 61.667M143.875 49.095C142.516 47.008 140.865 45.94 139.069 45.94 136.448 45.94 135.138 47.833 135.138 51.571 135.138 54.483 135.817 57.104 137.177 59.289 138.536 61.473 140.089 62.59 141.885 62.59 144.409 62.59 145.962 60.212 145.962 56.426 145.962 53.657 145.282 51.23 143.875 49.095" fill="#734D5F" clip-path="url(#SVGID_2_)"/></g></svg>