<svg viewBox="0 0 600 450" xmlns="http://www.w3.org/2000/svg" xmlns:xlink="http://www.w3.org/1999/xlink" id="illustration_kopia_3" overflow="hidden"><path d="M128 398.2 229.7 379.5 475.9 371.2 599.8 402.8 327.9 433.8 138.8 424.6Z" id="shadow" fill-rule="evenodd" clip-rule="evenodd" opacity="0.1"/><g id="maps"><path d="M0 371.2 100.5 391.7 182.7 362.7 78.8 350.8Z" fill-rule="evenodd" clip-rule="evenodd" opacity="0.1"/><path d="M115.4 246.3 193.7 272.2 101.3 383.2 107.7 286.5Z" fill="#54B08B" fill-rule="evenodd" clip-rule="evenodd"/><path d="M10.2 273.3 115.4 246.3 101.3 383.2Z" fill="#3F8F6F" fill-rule="evenodd" clip-rule="evenodd"/><path d="M106.3 187.8 141.6 186.3 82.6 327.7ZM138.4 194.8 147 193.2 102 322.1 92 327.7 112.7 259.2Z" fill="#369496"/><path d="M82.6 327.7 106.3 187.8 138.4 194.8 92 327.7Z" fill="#50A9AA"/><path d="M0 182.9 42.9 161.8 63.8 359.9 60.3 351.9Z" fill="#369496" fill-rule="evenodd" clip-rule="evenodd"/><path d="M66.8 354 61.1 174.6 0 182.9 57.9 359.9Z" fill="#50A9AA" fill-rule="evenodd" clip-rule="evenodd"/><path d="M61.1 174.6 19.8 193.8 57.9 359.9 71.8 359.9 63.8 263.5 62.2 194.8Z" fill="#8CE0DC" fill-rule="evenodd" clip-rule="evenodd"/><path d="M62.2 194.8 38 204.6 71.8 359.9Z" fill="#50A9AA" fill-rule="evenodd" clip-rule="evenodd"/><path d="M42.9 227.2 63.8 219.3M48.3 251.9 65.2 245.3M53.9 277.4 66.8 272.9" stroke="#8CE0DC" stroke-width="1.0714" stroke-miterlimit="10" fill="none"/><g><path d="M97.3 149.4 59.8 157.3 64.2 316.9 95.9 207.8Z" fill="#318FA6" fill-rule="evenodd" clip-rule="evenodd"/><path d="M119.3 168 97.3 149.4 73 322.9Z" fill="#8BE6EF" fill-rule="evenodd" clip-rule="evenodd"/><path d="M69.2 160.8 101.5 160.5 92.9 208Z" fill="#5BB8CE" fill-rule="evenodd" clip-rule="evenodd"/><path d="M86.6 175 69.2 160.8 64.2 316.9 73 322.9Z" fill="#8BE6EF" fill-rule="evenodd" clip-rule="evenodd"/><path d="M86.6 175 119.3 168 79.4 322.3 73 322.9Z" fill="#318FA6" fill-rule="evenodd" clip-rule="evenodd"/><path d="M116.3 179.5 96 184.1 84.9 301.2Z" fill="#27788C" fill-rule="evenodd" clip-rule="evenodd"/><path d="M93.4 211 109.1 207.7M91.3 233.5 103.1 231.3M89.3 254.5 97.4 252.9M87.3 273.8 91.9 272.8" stroke="#8BE6EF" stroke-width="1.0714" stroke-miterlimit="10" fill="none"/></g><g><path d="M154.5 174.2 183.8 177.7 111.3 352.9Z" fill="#438FA7"/><path d="M189.7 197 154.5 174.2 104 349.7 110.2 350.8Z" fill="#5EC0D9"/><path d="M97.5 346.9 131.1 230.8 138.8 191.6 142 179.7 189.7 197 111.3 352.9Z" fill="#8BE6EF"/><path d="M138.8 191.6 171.5 203.1 101.5 348.6 97.5 346.9Z" fill="#5EC0D9"/><path d="M160.2 226.5 132 217.2M149.6 248.6 125.7 241.2M139.2 270.1 119.6 264M129.4 291.1 113.7 286.3" stroke="#8BE6EF" stroke-width="1.0714" stroke-miterlimit="10" fill="none"/></g><path d="M10.2 273.3 110.9 294.2 110.9 334.7 101.3 383.2 58.8 368.1 30 350.8Z" fill="#54B08B" fill-rule="evenodd" clip-rule="evenodd"/><path d="M30 350.8 24.1 374.4 101.3 383.2Z" fill="#72C9A6" fill-rule="evenodd" clip-rule="evenodd"/><path d="M110.9 294.2 193.7 272.2 157 370.6 101.3 383.2Z" fill="#3F8F6F" fill-rule="evenodd" clip-rule="evenodd"/></g><g id="stand_x2B_map"><g id="stand"><path d="M319.9 349.3 433.6 334.7 558.8 346.5 417.8 365.7Z" fill-rule="evenodd" clip-rule="evenodd" opacity="0.1"/><path d="M557.7 64.8 566.8 65.9 553 261.5 544.8 264 548 156.1Z" fill="#C4C4C4" fill-rule="evenodd" clip-rule="evenodd"/><path d="M558.8 51.4 567.9 54.6 566.8 65.9 557.7 64.8 555.8 58.7Z" fill="#1C7678" fill-rule="evenodd" clip-rule="evenodd"/><path d="M426.1 16.5 401.5 362.9 419.5 365.1 436 175.6 444.9 17.6Z" fill="#50A9AA" fill-rule="evenodd" clip-rule="evenodd"/><path d="M444.9 17.6 454.6 21.9 431 360.8 419.5 365.1Z" fill="#1C7678" fill-rule="evenodd" clip-rule="evenodd"/><path d="M316.9 53.6 437.8 54.2 557.6 65.5 544.8 264 301.9 247.5Z" fill="#ECECEB" fill-rule="evenodd" clip-rule="evenodd"/><path d="M316.9 53.6 317.4 41.7 558.8 51.4 557.7 64.8Z" fill="#369496" fill-rule="evenodd" clip-rule="evenodd"/><path d="M455.9 55.1 455 71.1 409.5 68.8 410.2 53.1Z" fill="#72CBCC" fill-rule="evenodd" clip-rule="evenodd"/></g><g id="map"><path d="M335.5 90 342.4 87.9 352.9 90.6 363.5 90.9 360.7 87.3 364.1 85.3 376.1 88.2 372.3 92.2 376 92.4 382.8 88.3 393.7 93.2 392 96.5 386.2 95.5 386.5 92.9 376.7 97 383.4 103 385.7 97.4 393.3 99.1 397.6 106.5 389.3 110.2 382.7 118.7 374 118.2 373.3 125.6 378.6 123.8 385.5 135.3 374.5 127.3 370.4 127.2 361.4 114.6 358.7 113 358 103.6 347.7 95.8 336.9 99.5 337.1 95.6 335.1 94.8Z" fill="#54B08B" fill-rule="evenodd" clip-rule="evenodd"/><path d="M383.4 132.6 387.3 130.3 398.2 135.7 399.5 139.6 408.9 144.2 403.5 154.6 393.5 161.7 386.8 172.2 388.6 175.8 383.6 173.8 384.3 165.4 387 151.6 383.4 147.9 381.6 138.9 383.7 134.5ZM435.2 116.2 434.3 118.1 440.1 121.4 442.6 119.8 448.6 120.7 448.7 129.1 452.4 135.5 456.9 134.6 453.8 141 449.4 144.8 449.9 151.8 442.2 163.1 436.6 164.3 433.4 151.3 434.7 148.7 432.4 137.4 428.3 136.2 423.1 137.9 418.2 131 420.8 122.2 425.1 116.9Z" fill="#54B08B" fill-rule="evenodd" clip-rule="evenodd"/><path d="M425.4 116.4 429 114.7 431.1 111.9 434.3 111.8 437.7 115.4 439.4 114.9 440.7 117.5 443.8 115.5 449.2 117.8 447.8 121.1 452.5 133.3 462.3 127.9 458.9 125.6 455.3 123.2 456.8 121.9 461.5 125.4 468.9 128.4 471.2 137.4 473.6 136.3 477.7 128.8 480.7 129.3 486.9 138.7 489.9 135.7 488.8 129.9 494.8 129 498.2 124.9 496.4 118.4 499.4 117.5 500.7 121.5 504.3 116.3 510 110.9 508 107.9 510.6 105.2 516.2 106 519.7 103.8 522.6 104.7 517.2 108.3 518.3 111.6 523.2 105.5 531.5 104.1 531.6 99.8 523.7 98.4 510.7 94.6 503 97.1 500.7 95 494 94.6 490.6 92 476.1 94.1 470.1 93.3 467.7 95.9 453.6 97.5 450.2 99.5 449.5 97.5 452.7 96.5 452.4 94.5 443.5 92.9 432.4 99.1 433.8 102.6 438.6 103.5 439.5 100.1 443.3 97.7 442.4 102.1 440 104.9 434 104.3 430.1 106.7 426.6 108.5 427.8 111.3 423.5 111.5Z" fill="#54B08B" fill-rule="evenodd" clip-rule="evenodd"/><path d="M425.7 101.2 429.3 100.7 428.7 103.1 430.1 106 428.6 106.9 426 106.4 427.1 104.5Z" fill="#54B08B" fill-rule="evenodd" clip-rule="evenodd"/><path d="M423.3 103.8 425.1 103.3 426 104.3 423.9 106.5ZM451.6 153.3 455.7 150.2 453.8 158.5 451.4 158.7ZM403.2 98.9 405.3 96.1 410.1 94.3 414.3 93.9 414.2 90.5 416.4 90.5 417 87.1 420.5 83.9 419.3 82.8 415.6 83.8 414.2 80 402.7 80.2 398.8 83.1 394.4 82.7 390.7 87.9 397.2 89.3 398.2 95ZM492.2 167.8 492.1 163.9 490 160.1 495.6 156.9 495.8 154.7 503.2 152.2 504.8 152.8 504.1 155.3 507 156.8 507.2 152.3 509.1 153.6 511 158.5 512.8 160.4 514.3 165.7 510.2 171 507 170.9 504 166.9 497.2 165.9 496.7 167.6ZM489.1 142.8 494.3 139.4 494.7 143.9 492.2 146.5 490.6 146.5ZM503.4 145 510.2 148 511.9 151.3 510.8 151.6 509.2 150.3 507.3 151.2 503.8 147.4 501.6 145.2ZM483.7 137.8 487 141.2 486.4 142.9 487.9 144.9 487.6 147.7 489.7 149.1 487.3 149.5 484.6 146.3 483.7 142.7 482.4 140.2 483.9 139.9ZM509.6 114.4 511.9 115.7 509.2 117.2 508.8 120.8 503.2 123.3 503.1 120.9 506.7 119.5 507.4 116.2ZM415.5 96.9 417.6 98.6 420.5 96.9 419.9 95.7 416.1 95.9Z" fill="#54B08B" fill-rule="evenodd" clip-rule="evenodd"/></g><g id="chart"><path d="M460.3 208.5 511.4 208.5 511.4 217.2 460.3 217.2Z" fill="#9075A0" fill-rule="evenodd" clip-rule="evenodd" transform="matrix(0.07896 -0.9969 0.9969 0.07896 235.297 680.431)"/><path d="M443.5 203.4 502.8 203.4 502.8 212.1 443.5 212.1Z" fill="#96637C" fill-rule="evenodd" clip-rule="evenodd" transform="matrix(0.07896 -0.9969 0.9969 0.07896 228.659 663.067)"/><path d="M480.8 217.7 515.7 217.7 515.7 226.4 480.8 226.4Z" fill="#318FA6" fill-rule="evenodd" clip-rule="evenodd" transform="matrix(0.07909 -0.9969 0.9969 0.07909 237.531 701.176)"/><path d="M467.2 88.8 477.9 88.8 477.9 99.5 467.2 99.5Z" fill="#318FA6" fill-rule="evenodd" clip-rule="evenodd" transform="matrix(0.783205 -0.621763 0.621763 0.783205 43.8851 314.197)"/><path d="M395.4 149.9 406.1 149.9 406.1 160.6 395.4 160.6Z" fill="#318FA6" fill-rule="evenodd" clip-rule="evenodd" transform="matrix(0.783097 -0.6219 0.6219 0.783097 -9.6336 282.881)"/><path d="M487.5 159.5 498.2 159.5 498.2 170.2 487.5 170.2Z" fill="#318FA6" fill-rule="evenodd" clip-rule="evenodd" transform="matrix(0.783097 -0.6219 0.6219 0.783097 4.35459 342.274)"/><path d="M429.1 131.7 439.8 131.7 439.8 142.4 429.1 142.4Z" fill="#9075A0" fill-rule="evenodd" clip-rule="evenodd" transform="matrix(0.783097 -0.6219 0.6219 0.783097 9.0145 299.919)"/><path d="M491.3 123.1 502 123.1 502 133.8 491.3 133.8Z" fill="#9075A0" fill-rule="evenodd" clip-rule="evenodd" transform="matrix(0.783097 -0.6219 0.6219 0.783097 27.8242 336.707)"/><path d="M382.5 113.5 393.2 113.5 393.2 124.2 382.5 124.2Z" fill="#96637C" fill-rule="evenodd" clip-rule="evenodd" transform="matrix(0.783205 -0.621763 0.621763 0.783205 10.2121 266.913)"/><path d="M352.5 104.9 363.2 104.9 363.2 115.6 352.5 115.6Z" fill="#96637C" fill-rule="evenodd" clip-rule="evenodd" transform="matrix(0.783205 -0.621763 0.621763 0.783205 9.03745 246.402)"/><path d="M444.7 108.1 455.4 108.1 455.4 118.8 444.7 118.8Z" fill="#96637C" fill-rule="evenodd" clip-rule="evenodd" transform="matrix(0.783205 -0.621763 0.621763 0.783205 27.0159 304.389)"/><path d="M404.9 176.9 462.2 182.5M404.4 182.3 443.5 186.2M403.9 187.8 452 192.5M403.3 193.2 435.1 196.4M402.8 198.7 426.4 201M402.2 204.1 441.3 208M401.7 209.6 422.6 211.7M331.4 136 366 138.8M331 141.5 353.7 143.3M330.5 146.9 342.4 147.9M330.1 152.4 354.7 154.4M329.7 157.8 347 159.2M329.2 163.3 358.3 165.7M328.8 168.8 340.6 169.7M328.3 174.2 344.7 175.6M327.9 179.7 348.8 181.4M327.4 185.2 336.6 185.9M327 190.6 351.6 192.6M326.6 196.1 341.1 197.3" stroke="#969696" stroke-width="1.0714" stroke-miterlimit="10" fill="none"/></g></g><g id="table_kopia"><path d="M277.9 329 282 385.9 301 391.7 304.6 329.4ZM380.9 344.8 378 417.8 355.2 409.7 362.9 344.8Z" fill="#734D60" fill-rule="evenodd" clip-rule="evenodd"/><path d="M301 391.7 317.8 390.2 324.2 337.6 301 330.1Z" fill="#543042" fill-rule="evenodd" clip-rule="evenodd"/><path d="M378 347.6 378 417.8 403.4 415.6 393.9 346.3 385.9 344.8Z" fill="#96637C" fill-rule="evenodd" clip-rule="evenodd"/><path d="M553 403.9 538 400.3 523.7 336.2 545.2 329Z" fill="#734D60" fill-rule="evenodd" clip-rule="evenodd"/><path d="M580.9 331.7 571.6 401.7 553 403.9 542.1 334.7 561.5 325.7Z" fill="#96637C" fill-rule="evenodd" clip-rule="evenodd"/><path d="M451.6 336.4 451.6 381.7 431.2 383.2 428.4 334.7Z" fill="#543042" fill-rule="evenodd" clip-rule="evenodd"/><path d="M431.2 383.2 415.9 377.8 419.1 339.2 431.2 336.2Z" fill="#734D60" fill-rule="evenodd" clip-rule="evenodd"/><path d="M277.9 303.9 378 334.7 584.5 299.8 488 286.5Z" fill="#D1A1B8" fill-rule="evenodd" clip-rule="evenodd"/><path d="M378 329.4 374.8 338.2 378 347.6 580.9 331.7 584.5 299.8Z" fill="#96637C" fill-rule="evenodd" clip-rule="evenodd"/><path d="M277.9 303.9 277.9 329 378 347.6 378 329.4Z" fill="#734D60" fill-rule="evenodd" clip-rule="evenodd"/><path d="M318.8 300.5 368 306 327.9 316.6 277.9 303.9Z" fill-rule="evenodd" clip-rule="evenodd" opacity="0.1"/></g><g id="books"><path d="M555.5 280 452.7 283.3 455.9 304.8 555.5 295.8Z" fill="#27788C" fill-rule="evenodd" clip-rule="evenodd"/><path d="M455.9 286.5 440.3 279.9 419.5 276.1 419.5 292.2 455.9 304.8Z" fill="#CECECD" fill-rule="evenodd" clip-rule="evenodd"/><path d="M555.5 280 515.4 269.7 419.5 276.1 455.9 286.5Z" fill="#73CFE5" fill-rule="evenodd" clip-rule="evenodd"/><path d="M455.9 282.5 454.3 274.2 455.9 266.4 544.8 264 544.8 277.2Z" fill="#1C7678"/><path d="M455.9 266.4 419.5 260.3 419.5 273.1 455.9 282.5Z" fill="#CECECD" fill-rule="evenodd" clip-rule="evenodd"/><path d="M419.5 260.3 500.4 256.5 544.8 264 455.9 268.6Z" fill="#72CBCC" fill-rule="evenodd" clip-rule="evenodd"/><path d="M405.5 243.7 505.2 246.3 505.2 261.3 407.9 261.9Z" fill="#27788C" fill-rule="evenodd" clip-rule="evenodd"/><path d="M407.7 243.7 397 239.4 397 253.9 407.9 261.9Z" fill="#CECECD" fill-rule="evenodd" clip-rule="evenodd"/><path d="M397 239.4 489.7 238.5 505.2 246.3 407.7 245.9Z" fill="#73CFE5" fill-rule="evenodd" clip-rule="evenodd"/><path d="M419.5 228.6 515.9 226.5 513.8 243.1 419.5 243.1Z" fill="#1C7678"/><path d="M513.8 226.5 523.7 219.9 523.7 233.1 513.8 243.1Z" fill="#CECECD" fill-rule="evenodd" clip-rule="evenodd"/><path d="M523.7 219.9 434.5 219.9 419.5 228.6 513.8 228.6Z" fill="#72CBCC" fill-rule="evenodd" clip-rule="evenodd"/></g><g id="chair"><path d="M224.5 407.5 212.9 401.2 213 380.3 225 379.5Z" fill="#734D60" fill-rule="evenodd" clip-rule="evenodd"/><path d="M158 370.6 174.4 370.6 174.4 409.7 158 409.7ZM224.5 368.5 247.6 368.5 247.6 407.6 224.5 407.6Z" fill="#543042" fill-rule="evenodd" clip-rule="evenodd"/><path d="M254.3 425.7 238 417.2 242.3 389.1 257.1 384.3Z" fill="#734D60" fill-rule="evenodd" clip-rule="evenodd"/><path d="M123.2 209.9 224.9 207.8 243.4 350.8 155.2 350.8Z" fill="#96637C" fill-rule="evenodd" clip-rule="evenodd"/><path d="M155.2 350.8 179.3 370.6 266.4 370.6 243.4 350.8ZM123.2 209.9 101.3 201.7 211.2 192.9 224.9 207.8Z" fill="#D1A1B8" fill-rule="evenodd" clip-rule="evenodd"/><path d="M123.2 209.9 155.2 350.8 184.6 370.6 188.3 398.2 184.6 425.7 173.4 418.3 173.4 382.1 158 372.5 158 409.7 142.5 399.5 147.3 352.8 101.3 201.7Z" fill="#734D60" fill-rule="evenodd" clip-rule="evenodd"/><path d="M184.6 370.6 184.6 425.7 205.3 425.7 201.1 388.8 255 389.2 254.3 425.7 269.4 425.7 269.6 370.6Z" fill="#96637C" fill-rule="evenodd" clip-rule="evenodd"/></g><g id="istj"><path d="M211.2 370.6 248.6 370.6 250.8 342.8Z" fill="#2B2B2B" fill-rule="evenodd" clip-rule="evenodd"/><path d="M338.1 294.2 346 280 336.4 285.6Z" fill="#C4937D" fill-rule="evenodd" clip-rule="evenodd"/><path d="M277.9 303.9 283 284.4 291.2 270.7 324.2 279.7 317.4 306Z" fill="#72CBCC" fill-rule="evenodd" clip-rule="evenodd"/><path d="M257.1 233.3 291.2 270.7 277.9 303.9 263.6 291.1 259.1 264Z" fill="#51A9AB" fill-rule="evenodd" clip-rule="evenodd"/><path d="M300 103.6 269.6 99.9 250.8 101.6 238.3 92 218 85.3 219.6 97.4 226.8 104.7 217.4 115.8 214.4 129.2 214 146.7 218.6 162.3 214.6 161.5 210.3 163.5 210.3 155.6 207.5 149.4 198.7 149.3 191.5 152.6 192.9 164.5 197.3 176.1 195.3 182.7 197.5 192.9 199.4 197.8 197.6 201.7 207.8 214.1 225.5 229.1 233 225.2 238 219.2 242.3 206.4 283.1 211.1 291.7 164.5 296.3 156.5 298.1 140.4 296 134.9Z" fill="#FFDBC7" fill-rule="evenodd" clip-rule="evenodd"/><path d="M234.4 93.4 233.2 126.6 229.7 156.5 225.5 204.1 242.3 206.4 238.8 212 238 219.2 225.5 229.1 197.6 201.7 197.3 176.1 210.3 175 210.3 163.5 214 161.4 218.6 162.3 215.6 152.1 214.4 129.2 218.7 117.1 226.8 104.7 221.3 96.4 218 85.3 228.8 89.5Z" fill="#F5CAB3" fill-rule="evenodd" clip-rule="evenodd"/><path d="M197.3 176.1 210.3 175 197.5 192.9 195.5 182.5ZM242.3 206.4 218.6 203.2 225.5 229.1 233.6 225.2 238 219.2ZM237.4 150.4 242.8 138.3 255.8 139.5 257.3 154.3 229.7 156.5 255.7 162.4 259.1 168.4 264.2 130.8 239.5 134.8 234.6 141.7ZM279.4 155.1 283.4 144.2 295.5 144.4 298.1 147 292.8 161 270.7 161.7 270.1 166 291.7 164.5 299.1 153.7 299.8 138.3 277.8 137.2 274.1 153.8ZM259.1 168.4 263.5 174.5 269.6 169.9Z" fill="#C4937D" fill-rule="evenodd" clip-rule="evenodd"/><path d="M263.3 138.1 273.7 139.3 269.6 169.9 259.1 168.4Z" fill="#FFEAE0" fill-rule="evenodd" clip-rule="evenodd"/><path d="M263.3 138.1 262.3 134 264.2 130.8 274.6 132.1 276.4 136.1 273.7 139.3Z" fill="#27788C" fill-rule="evenodd" clip-rule="evenodd"/><path d="M264.2 130.8 233.2 126.6 230.7 137.6 230.9 146.1 229.7 156.6 260.2 160.1 263.3 138.2 264.2 130.8ZM239.5 134.8 256.1 137.1 254.1 152.5 237.4 150.5 239.5 134.8ZM274.6 132.1 304.8 136.1 300.8 165.7 270.7 161.8 273.7 139.4 274.6 132.1ZM281.4 140.6 279.4 155.1 293.7 157.2 295.8 142.5 281.4 140.6Z" fill="#318FA6" fill-rule="evenodd" clip-rule="evenodd"/><path d="M249 145C250.1 145.1 250.8 146.4 250.6 147.9 250.4 149.4 249.4 150.5 248.3 150.4 247.2 150.3 246.5 149 246.7 147.5 246.9 146 247.9 144.9 249 145ZM288 150.1C289.1 150.2 289.8 151.5 289.6 153 289.4 154.5 288.4 155.6 287.3 155.5 286.2 155.4 285.5 154.1 285.7 152.6 285.9 151.1 287 150 288 150.1Z" fill-rule="evenodd" clip-rule="evenodd"/><path d="M257.5 170.9 259.9 170.9 259.9 201.4 257.5 201.4Z" fill="#C4937D" fill-rule="evenodd" clip-rule="evenodd" transform="matrix(0.126891 -0.991917 0.991917 0.126891 41.1544 419.186)"/><path d="M205.8 166 203.7 156.1 196.8 156.7Z" fill="#C4937D" fill-rule="evenodd" clip-rule="evenodd"/><path d="M300 103.6 248.3 79 248 92.1 250.8 101.6Z" fill="#D6D6D6" fill-rule="evenodd" clip-rule="evenodd"/><path d="M218 85.3 204.5 86.9 193.9 109 208.5 109.7 226.8 104.7Z" fill="#C4C4C4" fill-rule="evenodd" clip-rule="evenodd"/><path d="M193.9 109 175.3 146.7 196.5 139.1 214.4 129.2 226.8 104.7Z" fill="#E3E3E3" fill-rule="evenodd" clip-rule="evenodd"/><path d="M214.4 129.2 218.6 162.3 210.3 163.5 207.4 149.4 191.5 152.6 197.3 176.1 197.5 192.9 175.3 146.7Z" fill="#A3A3A3" fill-rule="evenodd" clip-rule="evenodd"/><path d="M250.8 101.6 248.3 79 218 85.3Z" fill="#C4C4C4" fill-rule="evenodd" clip-rule="evenodd"/><path d="M233.2 126.6 184.6 150.7 193.3 160.1 191.5 152.6 207.5 149.5 230.9 146.1Z" fill="#27788C" fill-rule="evenodd" clip-rule="evenodd"/><path d="M216.8 148.2 230.9 146.1 230.3 151.4 217.3 151.7Z" fill="#C4937D" fill-rule="evenodd" clip-rule="evenodd"/><path d="M207.4 149.5 216.8 148.2 217.3 151.7 207.9 152Z" fill="#787878" fill-rule="evenodd" clip-rule="evenodd"/><path d="M197.6 201.7 191 216.2 216.2 239.4 227.2 246.2 238.5 238.5 246.5 227 238 219.2 227.5 228.6Z" fill="#E3E3E3" fill-rule="evenodd" clip-rule="evenodd"/><path d="M246.5 227 258.6 234.3 243.3 252.3 226.9 265.8 199.6 244.3 177.4 222 191 216.2 227.2 246.2Z" fill="#C4C4C4" fill-rule="evenodd" clip-rule="evenodd"/><path d="M257.1 233.3 226.9 265.8 177.4 222 177.6 306 245.7 301.8 263.6 291.1Z" fill="#1C7678" fill-rule="evenodd" clip-rule="evenodd"/><path d="M227.5 228.6 217.5 238.2 227.2 246.2 236.8 236.7Z" fill="#474747" fill-rule="evenodd" clip-rule="evenodd"/><path d="M227.2 246.2 216.4 256.5 226.9 265.8 237.9 254.9Z" fill="#737373" fill-rule="evenodd" clip-rule="evenodd"/><path d="M263.6 291.1 223.2 300.1 180.9 331.7 268.9 337.1Z" fill="#369496" fill-rule="evenodd" clip-rule="evenodd"/><path d="M274.1 198.2 277.5 191.8 340.2 209.9 377.7 185.8 385.9 189.3 341.2 223.9Z" fill="#CECECD" fill-rule="evenodd" clip-rule="evenodd"/><path d="M265.8 196.3 342.7 214 324.2 294.2 247 276.6Z" fill="#3AA0BA" fill-rule="evenodd" clip-rule="evenodd"/><path d="M342.7 214 393.9 184.7 375.5 260.8 324.2 294.2Z" fill="#27788C" fill-rule="evenodd" clip-rule="evenodd"/><path d="M318.8 294.2 321.2 277.3 338.2 267.6 338.4 285.8 329.2 296.4Z" fill="#FFE6D6" fill-rule="evenodd" clip-rule="evenodd"/><path d="M318.8 294.2 317.4 306 338.1 294.2 338.4 285.8Z" fill="#F5CAB3" fill-rule="evenodd" clip-rule="evenodd"/><path d="M236.8 338.5 264.2 334.7 284.9 353.5 285.7 402.8 275.9 408.1 262.3 409.7Z" fill="#474747" fill-rule="evenodd" clip-rule="evenodd"/><path d="M285.7 402.8 301.6 425.7 262.9 425.7 262.3 409.7Z" fill="#27788C" fill-rule="evenodd" clip-rule="evenodd"/><path d="M243.4 311.1 245.7 331.7 243.4 356.8 211.2 370.6 184.6 370.6 176.6 331.7Z" fill="#616161" fill-rule="evenodd" clip-rule="evenodd"/><path d="M243.4 311.1 294.8 347.6 291.2 356.3 284.9 365.3 243.4 356.8Z" fill="#737373" fill-rule="evenodd" clip-rule="evenodd"/><path d="M284.9 365.3 302.6 374.4 324.2 338.2 294.8 347.6Z" fill="#318FA6" fill-rule="evenodd" clip-rule="evenodd"/><path d="M176.6 331.7 219.2 318.8 174.4 306Z" fill="#1C7678" fill-rule="evenodd" clip-rule="evenodd"/><path d="M177.4 222 184.6 282.5 175.3 292.9 158 304 155.2 232.3Z" fill="#72CBCC" fill-rule="evenodd" clip-rule="evenodd"/><path d="M184.6 282.5 218.6 295.3 217.3 304.5 212.1 317.1 158 304Z" fill="#369496" fill-rule="evenodd" clip-rule="evenodd"/><path d="M218.6 295.3 225.2 297.7 225.3 308.7 219.2 318.8 212.1 317.1Z" fill="#E3E3E3" fill-rule="evenodd" clip-rule="evenodd"/><path d="M225.2 297.7 244.3 288.9 247 304 243.4 311.1 219.2 318.8Z" fill="#FFDBC7" fill-rule="evenodd" clip-rule="evenodd"/><path d="M244.3 288.9 243.4 311.1 254.2 318.8 255 308.2Z" fill="#C4937D" fill-rule="evenodd" clip-rule="evenodd"/></g></svg>