<svg viewBox="0 0 600 450" xmlns="http://www.w3.org/2000/svg" xmlns:xlink="http://www.w3.org/1999/xlink" id="illustration" overflow="hidden"><g id="signs"><path d="M571.3 188.9 575.3 157.7 581.4 157.6 573.4 189.9Z" fill="#9B9B9B" fill-rule="evenodd" clip-rule="evenodd"/><path d="M563.2 167.4 589.6 176.8 598.8 150 566.2 138.1Z" fill="#A587B8" fill-rule="evenodd" clip-rule="evenodd"/><path d="M576.5 151 579.1 156.2 584.7 153.6 585 156.1 580.2 158.4 583.2 164.4 580.7 166.5 577.3 159.9 572.9 162 571.6 159.7 576.1 157.6 573.5 152.5Z" fill="#FFFFFF" fill-rule="evenodd" clip-rule="evenodd"/><path d="M505.9 139.5 500.8 108.5 506.7 106.7 508.2 139.9Z" fill="#9B9B9B" fill-rule="evenodd" clip-rule="evenodd"/><path d="M492 121.2 520 122.8 521.2 94.4 486.5 92.3Z" fill="#50A9AA" fill-rule="evenodd" clip-rule="evenodd"/><path d="M500.1 101.7 504 106 508.7 101.8 509.6 104.2 505.7 107.8 510.3 112.7 508.5 115.4 503.3 110 499.8 113.2 497.8 111.5 501.6 108.2 497.6 104Z" fill="#FFFFFF" fill-rule="evenodd" clip-rule="evenodd"/><path d="M417.3 110.1 415 78.8 421 77.5 419.6 110.7Z" fill="#9B9B9B" fill-rule="evenodd" clip-rule="evenodd"/><path d="M405.1 90.7 432.8 94.7 436.5 66.5 402.1 61.4Z" fill="#CCAD14" fill-rule="evenodd" clip-rule="evenodd"/><path d="M414.9 72 418.4 76.5 423.4 72.8 424.1 75.3 419.9 78.5 424.1 83.8 422 86.3 417.4 80.5 413.5 83.4 411.8 81.5 415.8 78.5 412.2 74Z" fill="#FFFFFF" fill-rule="evenodd" clip-rule="evenodd"/><path d="M93 132.8 82.6 103.1 88 100.3 95.3 132.7Z" fill="#9B9B9B" fill-rule="evenodd" clip-rule="evenodd"/><path d="M76.1 117.2 103.9 113.8 100.1 85.7 65.6 89.7Z" fill="#3AA0BA" fill-rule="evenodd" clip-rule="evenodd"/><path d="M80.7 96.6 85.3 100.1 89.1 95.2 90.5 97.3 87.3 101.6 92.7 105.5 91.3 108.5 85.3 104.2 82.4 108 80.2 106.6 83.2 102.7 78.6 99.3Z" fill="#FFFFFF" fill-rule="evenodd" clip-rule="evenodd"/><path d="M68.6 199.5 71.1 168.2 77.2 167.8 70.8 200.5Z" fill="#9B9B9B" fill-rule="evenodd" clip-rule="evenodd"/><path d="M59.4 178.5 86.3 186.6 94.1 159.3 61 149.1Z" fill="#B3889D" fill-rule="evenodd" clip-rule="evenodd"/><path d="M72 161.4 74.8 166.5 80.3 163.6 80.6 166.1 76 168.7 79.3 174.5 76.9 176.7 73.1 170.3 68.9 172.6 67.4 170.4 71.9 168.1 69 163.1Z" fill="#FFFFFF" fill-rule="evenodd" clip-rule="evenodd"/><path d="M32.8 234.7 18.7 206.5 23.8 203.1 35.1 234.3Z" fill="#9B9B9B" fill-rule="evenodd" clip-rule="evenodd"/><path d="M14.1 221.3 41.3 214.5 34 187.1 0.3 195.3Z" fill="#E2A942" fill-rule="evenodd" clip-rule="evenodd"/><path d="M16.1 200.3 21.1 203.1 24.3 197.8 25.9 199.8 23.2 204.4 29.1 207.7 28.1 210.8 21.6 207.2 19.2 211.4 16.8 210.3 19.4 206 14.3 203.2Z" fill="#FFFFFF" fill-rule="evenodd" clip-rule="evenodd"/><path d="M429.2 179.4 417.3 150.3 422.6 147.2 431.5 179.3Z" fill="#9B9B9B" fill-rule="evenodd" clip-rule="evenodd"/><path d="M411.5 164.7 439.2 159.9 434 132 399.7 137.7Z" fill="#B3889D" fill-rule="evenodd" clip-rule="evenodd"/><path d="M415.1 143.9 419.8 147.1 423.5 142.1 424.9 144.1 421.9 148.5 427.5 152.2 426.3 155.3 420.1 151.2 417.3 155.2 415.1 153.9 417.9 149.8 413.1 146.6Z" fill="#FFFFFF" fill-rule="evenodd" clip-rule="evenodd"/></g><g id="roads"><path d="M127.7 450 240.8 325.9 91.7 303 134.2 260 96.7 251.2 30.9 284.5 25.9 234.4 40.4 231.5 47 255 79.1 238 91.3 218.6 59.2 198.4 77.6 195.3 119.3 216.3 102.8 233.2 176.9 243.2 205.4 218.1 121.6 181.8 155.3 146.3 82.5 133 102.1 125.3 166.4 134.9 197.8 120.9 170.2 106.5 193.9 69.6 209.2 72.1 196.2 102 232.3 120.9 180.9 145.2 154.9 177.7 242.3 200 191.2 264.4 159.1 262.3 142.3 288.8 244.8 300.1 359.4 201.3 372.1 181.8 314.1 165.9 408.6 104.9 430.1 106.5 352 164 401 175.1 374.2 230.2 311 287 446.1 263.3 420.3 233.2 462.2 209.5 462.2 190.7 420.3 181.8 436.6 171.2 475.6 176.2 510 168.8 496.7 136.7 514.3 136.7 540.3 178.4 478.7 193 485.2 215.6 450.3 235.8 496.3 269 528 270.9 541.8 245.9 507.8 230.2 565.9 185.4 579.3 188.1 541.8 227.3 567.5 235.8 552.9 290.6 463.4 284.9 359.8 332.7 464.5 450Z" fill="#DDDDDC" fill-rule="evenodd" clip-rule="evenodd"/><path d="M463.4 284.9 496.3 269 528 270.9 552.9 290.6ZM541.8 245.9 567.5 235.8 541.8 227.3 507.8 230.2ZM462.2 209.5 485.2 215.6 450.3 235.8 420.3 233.2ZM478.7 193 475.6 176.2 510 168.8 540.3 178.4ZM401 175.1 372.1 181.8 359.4 201.3 374.2 230.2ZM102.8 233.2 79.1 238 90.5 218.1 118 215.6Z" fill="#C4C4C4" fill-rule="evenodd" clip-rule="evenodd"/><path d="M240.8 325.9 91.7 303 134.2 260 153.7 240.1 176.9 243.2 205.4 218.1 121.6 181.8 155.3 146.3 166.4 134.9 197.8 120.9 170.2 106.5 193.9 69.6 209.2 72.1 196.2 102 232.3 120.9 180.9 145.2 154.9 177.7 242.3 200 191.2 264.4 159.1 262.3 142.3 288.8 244.8 300.1Z" fill="#72C9A6" fill-rule="evenodd" clip-rule="evenodd"/><path d="M176.9 243.2 205.4 218.1 242.3 200 191.2 264.4ZM159.1 262.3 134.2 260 91.7 303 142.3 288.8ZM180.9 145.2 155.3 146.3 121.6 181.8 154.9 177.7ZM196.2 102 171.7 107.3 197.8 120.9 232.3 120.9Z" fill="#54B08B" fill-rule="evenodd" clip-rule="evenodd"/><path d="M178.5 68.2 224.7 75.6 207.9 56.8Z" fill="#72C9A6" fill-rule="evenodd" clip-rule="evenodd"/></g><g id="_x3F_"><path d="M295.5 14.3 314.5 0 326.5 21.4 311 28 317.6 39.1 308.9 41.6 300.4 28.7 308.5 25 315.1 18.6 310 11.6 299.6 18.6ZM307.7 52.2 313.1 47.2 318.9 54.6 309.9 58.2Z" fill="#709D53" fill-rule="evenodd" clip-rule="evenodd"/><path d="M310 11.6 314.5 0 293.4 13.8 299.7 19.7ZM315.1 18.6 311 28 300.4 28.7ZM313.1 47.2 309.9 58.2 306 51.7Z" fill="#A0CF7E" fill-rule="evenodd" clip-rule="evenodd"/></g><g id="character"><path d="M197.8 415.4 296.6 395.9 402.1 420.6 296.6 434.2Z" fill-rule="evenodd" clip-rule="evenodd" opacity="0.1"/><path d="M372.1 338.2 383 318.4 371.9 313.6 370.9 325.9Z" fill="#C2927D" fill-rule="evenodd" clip-rule="evenodd"/><path d="M406.5 279.3 377.8 307.7 374.1 309.8 371.9 313.6 372.1 338.2 359.4 325.9 357.3 313.6 359.4 279.3 379 277.2Z" fill="#E8BFA6" fill-rule="evenodd" clip-rule="evenodd"/><path d="M371.9 313.6 359.4 298.6 358.2 290.3 359.4 279.3 377.8 307.7Z" fill="#53AF8A" fill-rule="evenodd" clip-rule="evenodd"/><path d="M359.4 201.3 420.3 279.3 359.4 279.3 357.3 244.5Z" fill="#738D56" fill-rule="evenodd" clip-rule="evenodd"/><path d="M242.3 151.1 246.4 104.9 238.3 97 227.7 94.7 197.8 167.9 224.4 163Z" fill="#FCDAC7" fill-rule="evenodd" clip-rule="evenodd"/><path d="M246.4 104.9 248.9 94.7 241.9 89.5 231.7 85.7 227.7 94.7Z" fill="#53AF8A" fill-rule="evenodd" clip-rule="evenodd"/><path d="M248.9 94.7 258 88.9 262.7 83.1 262 75.6 258 68.2 231.7 85.7Z" fill="#FFF1E8" fill-rule="evenodd" clip-rule="evenodd"/><path d="M273 75.1 274 80 283.5 84.6 287.1 84.4 289.4 81.8 276.5 69.6Z" fill="#F5CAB3" fill-rule="evenodd" clip-rule="evenodd"/><path d="M262.7 83.1 268.5 91.7 267.3 95.3 260.1 95.6 248.9 94.7ZM258 68.2 276.5 69.6 274 80 262.7 83.1Z" fill="#FCDAC7" fill-rule="evenodd" clip-rule="evenodd"/><path d="M262.6 181.8 242.3 151.1 179.2 174.9 254.4 230.2 262.6 204.9Z" fill="#738D56" fill-rule="evenodd" clip-rule="evenodd"/><path d="M339.9 197.4 345.1 175.4 362.9 149.2 372.1 149.2 372.1 128.6 361.7 128.6 263.8 133 254.4 133 256.1 153.6 265.9 153.6 288.3 187.5Z" fill="#FCDAC7" fill-rule="evenodd" clip-rule="evenodd"/><path d="M362.9 149.2 335.6 160.4 314.1 177.7 309.9 190.7 340.1 197.4Z" fill="#F5CAB3" fill-rule="evenodd" clip-rule="evenodd"/><path d="M304.3 102 304.3 136.2 314.1 177.7 362.9 149.2 362.9 128.6 361 122.8 362.9 114 362.9 88.2 329.6 90.2Z" fill="#2B2B2B" fill-rule="evenodd" clip-rule="evenodd"/><path d="M314.1 177.7 265.9 153.6 263.8 133 264.9 127.2 262.6 120.9 260.1 95.6 290 95.6 304.3 102Z" fill="#4F5253" fill-rule="evenodd" clip-rule="evenodd"/><path d="M362.9 88.2 309.9 72.1 304.3 88.2 304.3 102Z" fill="#4F5253" fill-rule="evenodd" clip-rule="evenodd"/><path d="M304.3 102 260.1 95.6 309.9 72.1Z" fill="#858686" fill-rule="evenodd" clip-rule="evenodd"/><path d="M362.9 114 350.8 123.5 350.8 131.5 362.9 128.6Z" fill="#6F7173" fill-rule="evenodd" clip-rule="evenodd"/><path d="M263.8 133 277.6 136.7 277.6 128.6 262.6 120.9Z" fill="#9DA1A2" fill-rule="evenodd" clip-rule="evenodd"/><path d="M265.9 153.6 254.4 133 256.1 153.6ZM362.9 149.2 372.1 128.6 372.1 149.2Z" fill="#F5CAB3" fill-rule="evenodd" clip-rule="evenodd"/><path d="M262.6 181.8 272.6 186.9 281.9 185.7 345.1 198.4 350.8 201.3 359.4 201.3 359.4 279.3 300.9 279.3 248.1 267.3Z" fill="#98C16D" fill-rule="evenodd" clip-rule="evenodd"/><path d="M287.9 186.9 300.9 200 340.1 197.4 349.3 199.3 296.3 209.5 274.9 184.3Z" fill="#9AAE40" fill-rule="evenodd" clip-rule="evenodd"/><path d="M349.3 199.3 359.4 201.3 294.6 218.6 262.6 181.8 274.9 184.3 296.3 209.5Z" fill="#ADC54D" fill-rule="evenodd" clip-rule="evenodd"/><path d="M359.4 279.3 359.4 303 358.2 311.3 359.4 318.5 359.4 325.9 294.6 325.9 242.3 312.6 243.4 304.6 245.6 297.7 245.4 288.8 248.1 267.3Z" fill="#709D53" fill-rule="evenodd" clip-rule="evenodd"/><path d="M242.3 312.6 265.9 340.4 296.9 363.8 331.3 346.9 359.4 325.9Z" fill="#35785E" fill-rule="evenodd" clip-rule="evenodd"/><path d="M242.3 312.6 237.2 356.5 258.5 374.5 281.8 386.1 296.9 363.8 309.6 393.2 333.6 384 359.4 367.2 359.4 325.9 296.9 363.8Z" fill="#3F8E6F" fill-rule="evenodd" clip-rule="evenodd"/><path d="M281.8 386.1 270.1 407.7 250.4 412.4 237.2 404.1 232 390.7 237.2 356.5ZM309.6 393.2 317 413.4 333.6 422 346.2 412.8 359.4 394.7 359.4 367.2Z" fill="#53AF8A" fill-rule="evenodd" clip-rule="evenodd"/><path d="M232 390.7 213.6 408.5 229.2 412.8 254.7 407.9Z" fill="#738D56" fill-rule="evenodd" clip-rule="evenodd"/><path d="M270.1 407.7 270.1 417.1 213.6 417.1 213.6 408.5Z" fill="#98C16D" fill-rule="evenodd" clip-rule="evenodd"/><path d="M359.4 394.7 377.8 413.4 359.4 417.1 333.6 413.4Z" fill="#738D56" fill-rule="evenodd" clip-rule="evenodd"/><path d="M317 413.4 377.9 413.4 377.9 421.9 317 421.9Z" fill="#98C16D" fill-rule="evenodd" clip-rule="evenodd"/><path d="M273.8 215.6 262.6 181.8 281.8 185.7 281.8 216.8 277.6 218.1ZM335.6 224.6 345.1 198.4 359.4 201.3 345.1 226 339.7 227.3ZM260.6 314.7 242.3 312.6 245.4 288.8 255.5 295.4ZM348.4 307.7 359.4 303 359.4 325.9 342.1 323.9Z" fill="#474747" fill-rule="evenodd" clip-rule="evenodd"/><path d="M273.8 215.6 260.9 245.9 248.1 267.3 265.9 334.7 298.3 332.7 335.8 340.2 359.4 279.3 349.3 254.4 345.1 226 307.8 225.2Z" fill="#2B2B2B" fill-rule="evenodd" clip-rule="evenodd"/><path d="M273.8 215.6 263.7 269 300.9 279.3 341.7 279.3 345.1 226Z" fill="#6F7173" fill-rule="evenodd" clip-rule="evenodd"/><path d="M263.7 269 265.9 334.7 335.8 340.2 341.7 279.3Z" fill="#474747" fill-rule="evenodd" clip-rule="evenodd"/><path d="M274.5 260 272.6 281 288.3 282.5 291.2 261.6 274.5 260ZM286.2 279.3 277.8 275.9 276.3 264 286.3 266.1 286.3 279.3ZM314.9 264.4 313 285.4 328.7 286.9 331.6 266 314.9 264.4ZM326.5 283.7 318.1 280.3 316.6 268.4 326.5 270.5 326.5 283.7Z" fill="#E8F078" fill-rule="evenodd" clip-rule="evenodd"/><path d="M263.7 269 248.1 267.3 273.8 215.6ZM341.7 279.3 359.4 279.3 345.1 226Z" fill="#4F5253" fill-rule="evenodd" clip-rule="evenodd"/></g></svg>