<svg viewBox="0 0 600 450" xmlns="http://www.w3.org/2000/svg" xmlns:xlink="http://www.w3.org/1999/xlink" id="Warstwa_1" overflow="hidden"><g id="Warstwa_3"><path d="M38.8 349.5 191.2 368.9 332.1 349.5 191 336.5Z" fill-rule="evenodd" clip-rule="evenodd" opacity="0.1"/><path d="M146.2 343.6 124 339.2 101.5 343.6 124.1 347.4Z" fill="#72CBCC" fill-rule="evenodd" clip-rule="evenodd"/><path d="M146.2 343.6 146.2 350.7 124.2 354.7 124.1 347.4Z" fill="#50A9AA" fill-rule="evenodd" clip-rule="evenodd"/><path d="M124.2 354.7 101.5 350.7 101.5 343.6 124.1 347.4Z" fill="#369496" fill-rule="evenodd" clip-rule="evenodd"/><path d="M118.8 296.2 130.4 296.2 130.4 343.9 118.8 343.9Z" fill="#1C7678" fill-rule="evenodd" clip-rule="evenodd"/><path d="M185.1 286.7 124.1 274.8 62.7 286.7 124.6 297.2Z" fill="#72CBCC" fill-rule="evenodd" clip-rule="evenodd"/><path d="M185.1 286.7 185.1 293.7 124.7 304.6 124.6 297.2Z" fill="#50A9AA" fill-rule="evenodd" clip-rule="evenodd"/><path d="M124.7 304.6 62.6 293.7 62.7 286.7 124.6 297.2ZM180.3 120 185.4 120 185.4 352.6 180.3 352.6Z" fill="#369496" fill-rule="evenodd" clip-rule="evenodd"/><path d="M185.3 120 190.4 120 190.4 352.6 185.3 352.6Z" fill="#72CBCC" fill-rule="evenodd" clip-rule="evenodd"/><path d="M180.3 120 190.4 120 190.4 161.6 180.3 161.6Z" fill-rule="evenodd" clip-rule="evenodd" opacity="0.1"/><path d="M185.3 18 131.4 111.8 185.3 126.1Z" fill="#5EC0D9" fill-rule="evenodd" clip-rule="evenodd"/><path d="M185.3 18 131.4 111.8 61 93.2Z" fill="#3AA0BA" fill-rule="evenodd" clip-rule="evenodd"/><path d="M0 77.1 61 93.2 185.3 18Z" fill="#5EC0D9"/><path d="M185.3 18 239.1 111.8 185.3 126.1Z" fill="#3AA0BA" fill-rule="evenodd" clip-rule="evenodd"/><path d="M185.3 18 239.1 111.8 309.5 93.2Z" fill="#5EC0D9" fill-rule="evenodd" clip-rule="evenodd"/><path d="M185.3 18 309.5 93.2 370.5 77.1Z" fill="#3AA0BA" fill-rule="evenodd" clip-rule="evenodd"/></g><g id="Warstwa_5"><path d="M407.7 219.5 423.9 261.6 414.6 260.6 408.4 253.4 406.7 244ZM372 350.7 371.5 382.9 378.8 396.6 374.7 398 360.3 396.9 364.2 382.3 353 352.7 355.9 325.9Z" fill="#F5CAB3" fill-rule="evenodd" clip-rule="evenodd"/><path d="M353 352.7 371.9 358 372 350.7 362.2 339.4Z" fill="#C4937D" fill-rule="evenodd" clip-rule="evenodd"/><path d="M325.7 397.1 392.6 387 456.3 394.9 395.8 407.5Z" fill-rule="evenodd" clip-rule="evenodd" opacity="0.1"/><path d="M378.9 400.2 360.3 400.6 360.3 396.9 370.6 395.4 378.8 396.6Z" fill="#755800" fill-rule="evenodd" clip-rule="evenodd"/><path d="M353.1 209.9 328 262.8 340.6 259.2 349 253.1 359.3 237.4 356.7 219.8Z" fill="#FFE6D6" fill-rule="evenodd" clip-rule="evenodd"/><path d="M431.8 394.5 406.2 394.5 405.8 387.5 418.3 390.1Z" fill="#755800" fill-rule="evenodd" clip-rule="evenodd"/><path d="M407.1 334.5 409.8 346.7 413.5 377.5 432.2 390.9 428.9 392.1 424.6 392.6 405.8 387.5 406.3 379.1 384.9 337.5Z" fill="#F5CAB3" fill-rule="evenodd" clip-rule="evenodd"/><path d="M424.6 392.6 432.2 390.9 435.7 389.5 431.8 394.5Z" fill="#C4937D" fill-rule="evenodd" clip-rule="evenodd"/><path d="M422.1 383.7 419.1 391.1 422.6 392 425.1 385.8Z" fill="#9E7700" fill-rule="evenodd" clip-rule="evenodd"/><path d="M360.3 396.9 372 394 378.8 396.6Z" fill="#C4937D" fill-rule="evenodd" clip-rule="evenodd"/><path d="M374 387.7 362.3 389.2 361.6 392.2 375.4 390.3Z" fill="#9E7700" fill-rule="evenodd" clip-rule="evenodd"/><path d="M394.4 355.9 409.8 346.7 399.5 343.7 390.7 348.7Z" fill="#C4937D" fill-rule="evenodd" clip-rule="evenodd"/><path d="M430.7 137 434.6 149.1 417.8 154.7 414.1 134.3Z" fill-rule="evenodd" clip-rule="evenodd"/><path d="M415.7 113.6 436.1 129.7 417.8 154.7 408.5 122Z" fill="#5C5C5C" fill-rule="evenodd" clip-rule="evenodd"/><path d="M436.1 129.7 416.9 137.2 409.3 146.8 417.8 154.7ZM304.8 159.6 296.4 168 292.8 180.5 332.2 208.7 363.2 198.6 347 159.6Z" fill="#383838" fill-rule="evenodd" clip-rule="evenodd"/><path d="M332.2 208.7 365.8 203.5 362.1 185Z" fill-rule="evenodd" clip-rule="evenodd"/><path d="M337.3 196.4 332.2 208.7 357.9 188.4 351 169.2 346.5 178.5Z" fill="#2B2B2B" fill-rule="evenodd" clip-rule="evenodd"/><path d="M417.3 145.7 429.7 162.5 418.6 171.7 418.2 164.2 421.2 161.7 417.9 157.2 415.5 153.6Z" fill="#856400" fill-rule="evenodd" clip-rule="evenodd"/><path d="M349.5 172.5 361.9 193.3 376.9 224.6 395.2 214.8 394.4 195 419.7 193.4 415.7 113.6 365.9 147.8Z" fill="#FFE6D6" fill-rule="evenodd" clip-rule="evenodd"/><path d="M373 163.2 377.3 195.9 394.4 195 393.5 204.3 395.2 217.9 386.5 221 376.9 224.6 357.5 187.6 356.7 181.6 349.5 172.5 361.8 150.8ZM403.9 137.2 402.2 139.8 403.1 156.2 410.1 143 413.1 138.3ZM396.5 140.2 391.8 137.5 380.4 141.6 392.2 151.8 397.2 162.2Z" fill="#F5CAB3" fill-rule="evenodd" clip-rule="evenodd"/><path d="M415.9 118.8 373.5 166 363.9 169.1 364.2 159.3 391.8 137.5 415.7 113.6Z" fill="#C4937D" fill-rule="evenodd" clip-rule="evenodd"/><path d="M366.4 177.5 357.5 187.6 349.5 172.5 356 157.8 369 162.6Z" fill="#C4937D" fill-rule="evenodd" clip-rule="evenodd"/><path d="M409.2 142.8C410.6 142.8 411.9 144.6 411.9 146.8 411.9 149 410.8 150.8 409.3 150.9 407.9 150.9 406.7 149.1 406.6 146.9 406.6 144.6 407.8 142.8 409.2 142.8M389 143.6C390.4 143.6 391.7 145.4 391.7 147.6 391.7 149.8 390.6 151.6 389.1 151.7 387.7 151.7 386.4 149.9 386.4 147.7 386.4 145.4 387.6 143.6 389 143.6" fill-rule="evenodd" clip-rule="evenodd"/><path d="M292.8 180.5 292.6 165.6 304.8 159.6 314.5 164.5Z" fill="#949494" fill-rule="evenodd" clip-rule="evenodd"/><path d="M304.8 159.6 292.8 180.5 337.3 196.4 357.1 157.7Z" fill="#474747" fill-rule="evenodd" clip-rule="evenodd"/><path d="M333.1 139 291.4 146.2 330 184.9 345 169.9 365.6 161.8 371.6 158.4Z" fill="#2B2B2B" fill-rule="evenodd" clip-rule="evenodd"/><path d="M329 148.5 291.4 146.2 331.5 138.2 332.2 142.5Z" fill="#7A7A7A" fill-rule="evenodd" clip-rule="evenodd"/><path d="M380.4 100.6 340.4 101.2 329 148.5 356.1 125.4Z" fill="#5C5C5C" fill-rule="evenodd" clip-rule="evenodd"/><path d="M422.7 105.4 373 163.2 365.5 162.1 352.9 163.2 340.8 158.7 321 156 368.4 130.1Z" fill="#474747" fill-rule="evenodd" clip-rule="evenodd"/><path d="M422.7 105.4 393.7 88.3 321 156Z" fill="#949494" fill-rule="evenodd" clip-rule="evenodd"/><path d="M404.4 131.1 412.9 138 403.9 137.2Z" fill="#2B2B2B" fill-rule="evenodd" clip-rule="evenodd"/><path d="M396.5 140.2 402.2 139.8 403.4 161.9 397.2 162.2Z" fill="#FFF1E8" fill-rule="evenodd" clip-rule="evenodd"/><path d="M397.2 162.2 400.6 165.8 403.4 161.9Z" fill="#C4937D" fill-rule="evenodd" clip-rule="evenodd"/><path d="M380.1 171.8 400.7 167.4 414.6 171 401.4 189.3Z" fill="#856400" fill-rule="evenodd" clip-rule="evenodd"/><path d="M386.2 172.9 410.1 172.4 403.3 182.1 397.7 182.2Z" fill="#5E4700" fill-rule="evenodd" clip-rule="evenodd"/><path d="M391.9 177.6 406.7 177.2 410.1 172.4 386.2 172.9Z" fill="#FFFFFF" fill-rule="evenodd" clip-rule="evenodd"/><path d="M365.8 162.2 366.4 177.5 346.5 178.5 349.5 172.5 360.3 171.7 360 165.9Z" fill="#856400" fill-rule="evenodd" clip-rule="evenodd"/><path d="M394.4 195 371.7 196.2 395.2 217.9Z" fill="#C4937D" fill-rule="evenodd" clip-rule="evenodd"/><path d="M304.8 159.6 292.8 180.5 314.7 169.6Z" fill="#5C5C5C" fill-rule="evenodd" clip-rule="evenodd"/><path d="M340.8 158.7 330 184.9 349.5 172.5 365.8 162.2 352.8 160.4Z" fill-rule="evenodd" clip-rule="evenodd"/><path d="M353.1 209.9 407.7 219.5 390.7 231.8Z" fill="#FFE6D6" fill-rule="evenodd" clip-rule="evenodd"/><path d="M353.1 209.9 362.4 251.3 382.1 237.5 390.5 228.5ZM390.5 228.5 407.7 219.5 408.4 253.4 398.8 240.3Z" fill="#9E7700" fill-rule="evenodd" clip-rule="evenodd"/><path d="M362.4 251.3 363.1 265.8 400 275.9 408.4 253.4 390.5 228.5Z" fill="#755800" fill-rule="evenodd" clip-rule="evenodd"/><path d="M363.1 265.8 400 275.9 398.1 281.7 401.3 285.1 405.2 313.1 375.4 303.9 347.2 288.7Z" fill="#F4D75D" fill-rule="evenodd" clip-rule="evenodd"/><path d="M347.2 288.7 405.2 313.1 380.4 334.5 352.9 352.7Z" fill="#E5C828" fill-rule="evenodd" clip-rule="evenodd"/><path d="M405.2 313.1 409.8 346.7 352.9 352.7ZM360.4 269.7 390.5 288.7 401.3 285.1 400 275.9 386.2 267.6Z" fill="#CCAD14" fill-rule="evenodd" clip-rule="evenodd"/><path d="M380.1 272.9 390.5 284.4 400 275.9 394.7 274.4Z" fill="#C4937D" fill-rule="evenodd" clip-rule="evenodd"/><path d="M349 253.1 371.6 262.8 374.1 267.6 371.7 272.1 328 262.8Z" fill="#F5CAB3" fill-rule="evenodd" clip-rule="evenodd"/><path d="M371.6 262.8 391.8 256.4 394.7 274.4 371.7 272.1ZM423.9 261.6 400 275.9 397.3 270.4 400.3 265.4 408.4 253.4Z" fill="#FFE6D6" fill-rule="evenodd" clip-rule="evenodd"/><path d="M400.3 265.4 391.8 256.4 394.7 274.4 400 275.9Z" fill="#F5CAB3" fill-rule="evenodd" clip-rule="evenodd"/></g><g id="Warstwa_4"><path d="M443.8 385.5 525.6 377.1 600.1 391.4 529 401.6Z" fill-rule="evenodd" clip-rule="evenodd" opacity="0.1"/><path d="M534.3 109.4 504.6 113.5 484.4 99.4 467.1 196.8 484.6 200.2 508.4 222.7 524.4 219.4 544.7 200.2 556.1 175 562.3 159.4 549 150 537.4 166.3 530.7 160.4 557.9 124.9Z" fill="#FFDBC7" fill-rule="evenodd" clip-rule="evenodd"/><path d="M534.3 109.4 514.5 206.1 524.4 219.4 546.3 200.8 555.5 176.4 541.9 169.1 537.4 166.3 533.4 161.1 556.5 123.9Z" fill="#EDC0A8" fill-rule="evenodd" clip-rule="evenodd"/><path d="M547.7 167.3 550.8 159 558.8 162.2ZM555.5 176.4 544.4 170.5 549.7 191.7ZM491 157.9 495.2 163.3 500.7 159.7Z" fill="#C4937D" fill-rule="evenodd" clip-rule="evenodd"/><path d="M518 138.9 509.7 140.5 500.7 159.7 506.2 132.5ZM496.4 130.7 492.7 149.5 489.3 134.4 483.5 130.3Z" fill="#EDC0A8" fill-rule="evenodd" clip-rule="evenodd"/><path d="M519.9 207.2 524.4 219.4 506.8 234.2 488.5 200.8Z" fill="#C4937D" fill-rule="evenodd" clip-rule="evenodd"/><path d="M497.2 127 484.2 126.1 483.5 130.3 496.4 130.7ZM506.9 128.8 519.5 135 518 138.9 506.2 132.5Z" fill="#474747" fill-rule="evenodd" clip-rule="evenodd"/><path d="M489.3 134.4C490.7 134.7 491.4 136.5 490.9 138.4 490.4 140.3 488.9 141.7 487.6 141.4 486.2 141.1 485.5 139.3 486 137.4 486.5 135.5 488 134.2 489.3 134.4M511.8 139.7C513.2 140 513.9 141.8 513.4 143.7 512.9 145.6 511.4 147 510.1 146.7 508.7 146.4 508 144.6 508.5 142.7 509 140.7 510.5 139.4 511.8 139.7" fill-rule="evenodd" clip-rule="evenodd"/><path d="M516.1 172.5 477.1 165 492 178.5Z" fill="#C4937D" fill-rule="evenodd" clip-rule="evenodd"/><path d="M505.5 172.8 484.6 168.7 492.6 176.7Z" fill="#FFFFFF" fill-rule="evenodd" clip-rule="evenodd"/><path d="M529.2 87.2 554.8 104.4 543.7 110.3 534.3 109.4 503.5 116 513.8 100.7Z" fill="#474747" fill-rule="evenodd" clip-rule="evenodd"/><path d="M554.8 104.4 576.7 120.4 562.7 124.4 554.5 124.5 534.3 109.4Z" fill="#737373" fill-rule="evenodd" clip-rule="evenodd"/><path d="M576.7 120.4 562.3 159.4 548.5 153.1 541.9 169.1 530.6 163.2 554.5 124.5Z" fill="#2B2B2B" fill-rule="evenodd" clip-rule="evenodd"/><path d="M503.5 116 529.2 87.2 484.4 99.4Z" fill="#8F8F8F" fill-rule="evenodd" clip-rule="evenodd"/><path d="M546.3 200.8 566.2 211.3 562.3 294.8 560.3 299.9 561.8 306.5 500.7 308.6 506.8 234.2Z" fill="#1C7678" fill-rule="evenodd" clip-rule="evenodd"/><path d="M546.3 200.8 541.9 235.2 506.8 234.2Z" fill="#51A9AB" fill-rule="evenodd" clip-rule="evenodd"/><path d="M484.6 200.2 506.8 234.2 500.7 307.8 461.1 305.4 454.5 271.6 467.1 196.8Z" fill="#369496" fill-rule="evenodd" clip-rule="evenodd"/><path d="M501.9 294.1 561.8 306.5 562.3 294.8 523.6 288.3Z" fill="#165E60" fill-rule="evenodd" clip-rule="evenodd"/><path d="M524.6 270.6 514.1 264.6 512.6 270.6Z" fill="#EDC0A8" fill-rule="evenodd" clip-rule="evenodd"/><path d="M506.8 234.2 475.1 218.3 488.5 200.8ZM566.2 211.3 578.3 296.1 558.1 275.9 547.7 259.3Z" fill="#72CBCC" fill-rule="evenodd" clip-rule="evenodd"/><path d="M493.4 271.3 491.9 257.3 498.6 257.3 505 255.5 516.4 260.3 514.5 270.6Z" fill="#73CFE5" fill-rule="evenodd" clip-rule="evenodd"/><path d="M517.8 259.3 510.2 258.1 505 255.5 503.7 271.3 514.5 270.6Z" fill="#5EC0D9" fill-rule="evenodd" clip-rule="evenodd"/><path d="M524.6 270.6 531 281.6 526.5 291.3 501.9 294.1 501.9 282.4 503.8 270.6Z" fill="#FFDBC7" fill-rule="evenodd" clip-rule="evenodd"/><path d="M503.8 270.6 493.4 271.3 494.2 285.7 501.9 294.1Z" fill="#C4937D" fill-rule="evenodd" clip-rule="evenodd"/><path d="M578.3 296.1 523.4 291.6 524.6 270.6 547.7 259.3Z" fill="#51A9AB" fill-rule="evenodd" clip-rule="evenodd"/><path d="M517.8 259.3 505 255.5 491.9 257.3 504.5 261.6ZM524.4 324.2 504.1 387.1 488.5 377.7 479.5 368.3 460 308.6Z" fill="#3AA0BA" fill-rule="evenodd" clip-rule="evenodd"/><path d="M561.8 306.5 535.5 323.3 508.4 334.5 460 308.6Z" fill="#318FA6" fill-rule="evenodd" clip-rule="evenodd"/><path d="M561.8 306.5 561.2 372.8 548.5 380.2 534.8 384.1 508.4 334.5Z" fill="#5EC0D9" fill-rule="evenodd" clip-rule="evenodd"/><path d="M561.2 372.8 571 393.7 534.7 394.2 534.8 384.1ZM504.1 387.1 463 387.1 479.5 368.3Z" fill="#165E60" fill-rule="evenodd" clip-rule="evenodd"/><path d="M454.5 271.6 428 251.3 456 213.8 465.2 228.5Z" fill="#51A9AB" fill-rule="evenodd" clip-rule="evenodd"/><path d="M456 213.8 465.2 194.1 479.5 213.8 465.2 228.5Z" fill="#C4937D" fill-rule="evenodd" clip-rule="evenodd"/><path d="M465.2 194.1 479.5 187.6 488.5 200.8 479.5 213.8ZM496.4 130.7 506.2 132.5 500.7 159.7 491 157.9Z" fill="#FDE9E0" fill-rule="evenodd" clip-rule="evenodd"/><path d="M500.7 307.8 454.5 271.6 460 308.6Z" fill="#1C7678" fill-rule="evenodd" clip-rule="evenodd"/></g><g id="intp"><path d="M1.1 414.5 88.5 403.2 166.9 417 82.5 431.3Z" fill-rule="evenodd" clip-rule="evenodd" opacity="0.1"/><path d="M36.9 239.7 10.8 299.2 27.1 294.4 36.8 287.7 38 266.6Z" fill="#96637C" fill-rule="evenodd" clip-rule="evenodd"/><path d="M10.8 299.2 38 326.8 36.8 287.7Z" fill="#734C5F" fill-rule="evenodd" clip-rule="evenodd"/><path d="M148.2 245 142 222.2 148.2 220.1 152.8 230.3 152.8 237.6ZM156.1 220.1 161.8 199.9 166.8 201 164 222.7 159.9 222.7Z" fill="#F5CAB3" fill-rule="evenodd" clip-rule="evenodd"/><path d="M140.6 257.9 136.9 268.5 127.4 280.6 119.7 277.2 115.8 257.1 117.2 235.2Z" fill="#734C5F" fill-rule="evenodd" clip-rule="evenodd"/><path d="M127.4 280.6 148.2 245 157.2 245.6 167.2 252.7 152 292.1Z" fill="#96637C" fill-rule="evenodd" clip-rule="evenodd"/><path d="M148.2 245 167.2 252.7 173.1 237.6 162.9 231.8 152.8 230.3Z" fill="#C4937D" fill-rule="evenodd" clip-rule="evenodd"/><path d="M152.8 230.3 156.1 220.1 177 227.1 173.1 237.6Z" fill="#FFE6D6" fill-rule="evenodd" clip-rule="evenodd"/><path d="M111.9 354.7 100.2 379.2 96.7 392.9 93.7 400.5 82.4 408.1 69 413.6 70 406.1 72.3 383.1 80.1 354.7 94.3 351.8Z" fill="#785D88" fill-rule="evenodd" clip-rule="evenodd"/><path d="M94.4 398.7 108.7 413.6 69 413.6ZM75.3 380 96.7 392.9 111.9 354.7 94.7 352.6 80.1 354.7 75.9 365.9Z" fill="#594165" fill-rule="evenodd" clip-rule="evenodd"/><path d="M80.1 354.7 75.3 367.7 75.3 380 69 413.6 55.4 408.7 45.2 400.5 36.6 354.7 61.5 352.6Z" fill="#9075A0" fill-rule="evenodd" clip-rule="evenodd"/><path d="M45.2 400.5 37.4 419.4 67.6 419.4 69 413.6Z" fill="#594165" fill-rule="evenodd" clip-rule="evenodd"/><path d="M36.6 354.7 75.3 380 80.1 354.7 59.4 351.8Z" fill="#6D5781" fill-rule="evenodd" clip-rule="evenodd"/><path d="M97.4 224.5 57.2 221.3 51 231.8 36.9 239.7 36.6 354.7 91.4 354.7 119.5 351.8 117.3 235.2Z" fill="#B3889D" fill-rule="evenodd" clip-rule="evenodd"/><path d="M61.2 229.5 65.3 249.2 91.7 266.6 98.7 241.5 97.4 224.5 92 225.1 82.1 231.8Z" fill="#594165" fill-rule="evenodd" clip-rule="evenodd"/><path d="M57.2 221.3 51 231.8 70.1 248.2 82.1 231.8 95 242.2 97.4 224.5 91.2 217.8Z" fill="#9075A0" fill-rule="evenodd" clip-rule="evenodd"/><path d="M131.6 201 93.1 212.2 82.1 231.8 69 222.2 57.2 221.3 58.2 209.8 54.1 203.8 52.2 193.2 46.6 194 37.2 179.4 45.5 172.7 58.7 182.9 64.9 177.9 42.3 139.5 54.4 126.7 96.7 123 108.9 114.6 124.7 164.9Z" fill="#FFE6D6" fill-rule="evenodd" clip-rule="evenodd"/><path d="M113.4 140.6 100.4 154.3 98.7 177.3 85 155.5 70.1 148.8 86.5 144.8 92 146 97.4 142.4 102.6 138.1Z" fill="#F5CAB3" fill-rule="evenodd" clip-rule="evenodd"/><path d="M96.2 135.1 113.4 140.6 97.4 142.4ZM86.5 144.8 70.1 148.8 84 137.7Z" fill="#734C5F" fill-rule="evenodd" clip-rule="evenodd"/><path d="M97.4 142.4 105.9 175.5 98.7 177.3 86.5 144.8Z" fill="#FFF1E8" fill-rule="evenodd" clip-rule="evenodd"/><path d="M107.5 151.9C109 151.7 110.5 153.4 110.8 155.7 111.2 158 110.3 160.1 108.8 160.3 107.3 160.5 105.8 158.8 105.5 156.5 105.1 154.2 106 152.2 107.5 151.9M84.4 157.4C85.9 157.2 87.4 158.9 87.7 161.2 88.1 163.5 87.2 165.6 85.7 165.8 84.2 166 82.7 164.3 82.4 162 82 159.7 82.9 157.6 84.4 157.4" fill-rule="evenodd" clip-rule="evenodd"/><path d="M105.9 175.5 103.7 181.3 98.7 177.3ZM113.2 184.7 86.7 187.8 96.2 199.6 112 196.2ZM44.1 179.2 53.9 184.8 46.1 185.5ZM51 193.3 58.6 192.1 54.1 203.8ZM131.6 201 84 210.3 73.2 210.7 82.1 231.8 94 213.6Z" fill="#C4937D" fill-rule="evenodd" clip-rule="evenodd"/><path d="M54.4 126.7 70.1 148.8 84 210.3 76 211.7 82.1 231.8 57.2 221.3 54.1 203.8 51 193.3 58.6 192.1 58.7 182.9 64.9 177.9 42.3 139.5Z" fill="#F5CAB3" fill-rule="evenodd" clip-rule="evenodd"/><path d="M117.9 107.7 108.9 114.6 97.3 124.6 92 107.2 93.3 89.9Z" fill="#474747" fill-rule="evenodd" clip-rule="evenodd"/><path d="M93.3 89.9 33.2 117.9 44 125.3 55.5 127.8 97.3 124.6Z" fill="#858686" fill-rule="evenodd" clip-rule="evenodd"/><path d="M55.5 127.8 44 139.4 35.5 139.6 28.3 136.1 33.2 117.9Z" fill="#6F7173" fill-rule="evenodd" clip-rule="evenodd"/><path d="M44 139.4 66.7 178.6 58.9 184.2 45.7 173.7 38.1 179.6 43.3 188.7 18.2 177.7 28.3 136.1Z" fill="#474747" fill-rule="evenodd" clip-rule="evenodd"/><path d="M58.6 192.1 54.1 203.8 51 193.3Z" fill="#C4937D" fill-rule="evenodd" clip-rule="evenodd"/><path d="M91.7 266.6 47.7 252.7 51 231.8Z" fill="#D8AFC5" fill-rule="evenodd" clip-rule="evenodd"/><path d="M91.7 266.6 91.4 354.7 124.2 354.7 117.2 235.2 107.7 233 97.4 224.5Z" fill="#96637C" fill-rule="evenodd" clip-rule="evenodd"/><path d="M97.4 224.5 117.3 235.2 91.7 266.6Z" fill="#B3889D" fill-rule="evenodd" clip-rule="evenodd"/><path d="M98.7 278.7 106.2 278.7 106.2 286.2 98.7 286.2Z" fill="#734D60" fill-rule="evenodd" clip-rule="evenodd" transform="matrix(0.707107 -0.707107 0.707107 0.707107 -169.754 155.153)"/><path d="M98.7 304.9 106.2 304.9 106.2 312.4 98.7 312.4Z" fill="#734D60" fill-rule="evenodd" clip-rule="evenodd" transform="matrix(0.707206 -0.707008 0.707008 0.707206 -188.231 162.764)"/><path d="M98.7 331.1 106.2 331.1 106.2 338.6 98.7 338.6Z" fill="#734D60" fill-rule="evenodd" clip-rule="evenodd" transform="matrix(0.707107 -0.707107 0.707107 0.707107 -206.762 170.481)"/><path d="M54.9 257.4 60.5 257.4 60.5 280.3 54.9 280.3Z" fill="#6D5781" fill-rule="evenodd" clip-rule="evenodd" transform="matrix(0.946001 -0.324165 0.324165 0.946001 -84.0335 33.2124)"/><path d="M49.6 277.2 79.4 277.2 79.4 282 49.6 282Z" fill="#96637C" fill-rule="evenodd" clip-rule="evenodd"/><path d="M92.2 190 110.7 186.8 93.4 193.2Z" fill="#FFFFFF" fill-rule="evenodd" clip-rule="evenodd"/><path d="M110.7 186.8 112 193.2 94.3 196.3 93.4 193.2Z" fill="#896051" fill-rule="evenodd" clip-rule="evenodd"/></g><g id="Warstwa_6"><path d="M235.3 224.2 227.3 241.7 215.6 259.2 222.5 225.1Z" fill="#728D56" fill-rule="evenodd" clip-rule="evenodd"/><path d="M167.9 409.6 238.2 406.2 320.6 419 253 423.7Z" fill-rule="evenodd" clip-rule="evenodd" opacity="0.1"/><path d="M218.8 410.9 220.3 399.1 219.6 393.8 210.6 391.6 192.7 410.1 206.3 410.9Z" fill="#FFDBC7" fill-rule="evenodd" clip-rule="evenodd"/><path d="M269.8 291.3 244.2 295.4 226 295.4 215.6 259.2 240.7 270.5Z" fill="#728D56" fill-rule="evenodd" clip-rule="evenodd"/><path d="M235.3 224.2 215.6 259.2 228.5 267.9 239.4 272.9 269.8 291.3 287.2 250.1Z" fill="#5A753D" fill-rule="evenodd" clip-rule="evenodd"/><path d="M210.6 119.8 215.6 119.1 218.7 115.9 233.9 110.1 273.1 115.9 239.6 231.8 233.3 217.8 224.3 204.8 210.6 198.3 194.1 192.8 206.2 161.6 214.5 127.9 213.9 123.2Z" fill="#FFDBC7" fill-rule="evenodd" clip-rule="evenodd"/><path d="M224.3 204.8 194.1 192.8 214.5 127.9 222.5 123.9 230.6 120 242.9 115.2 252.2 129.1 254.1 128.2 257.9 136 240 210.4Z" fill="#FFDBC7" fill-rule="evenodd" clip-rule="evenodd"/><path d="M257.8 136.1 240 210.4 242.5 213.2 249.3 214 254.1 208.2 257.5 199.6 259.5 177.2Z" fill="#EDC0A8" fill-rule="evenodd" clip-rule="evenodd"/><path d="M249.3 214 239.6 231.8 224.3 204.8 240 210.4Z" fill="#C4937D" fill-rule="evenodd" clip-rule="evenodd"/><path d="M214.5 127.9 218.7 115.9 248.1 101.1 242.9 115.2 230.6 120 222.5 123.9Z" fill="#E8F078" fill-rule="evenodd" clip-rule="evenodd"/><path d="M248.1 101.1 290 115 301.1 144.4 305 152.5 293.2 148.4 281.5 144.4 269.8 140.3 257.8 136.1 252.2 129.1 242.9 115.2Z" fill="#D9E354" fill-rule="evenodd" clip-rule="evenodd"/><path d="M257.8 136.1 269.4 140.2 281.5 144.4 293.2 148.4 305 152.5 308.4 209.9 261.7 144.2Z" fill="#B8C745" fill-rule="evenodd" clip-rule="evenodd"/><path d="M230.1 144.7 223.9 161.3 212.9 141.5ZM234.1 145.4 248.7 156.3 236.3 157.9 225 171.2Z" fill="#EDC0A8" fill-rule="evenodd" clip-rule="evenodd"/><path d="M220.7 169.9 221.8 174.3 225 171.2Z" fill="#C4937D" fill-rule="evenodd" clip-rule="evenodd"/><path d="M234.1 145.4 247.9 151.5 248.7 156.3ZM230.1 144.7 214.3 138.9 212.9 141.5Z" fill="#B8C745" fill-rule="evenodd" clip-rule="evenodd"/><path d="M240.5 156.9C241.9 157.3 242.6 159.3 242.1 161.3 241.6 163.4 240 164.8 238.6 164.4 237.2 164 236.5 162 237 160 237.5 157.9 239.1 156.5 240.5 156.9M217.9 148.7C219.3 149.1 220 151.1 219.5 153.1 219 155.2 217.4 156.6 216 156.2 214.6 155.8 213.9 153.8 214.4 151.8 214.9 149.7 216.5 148.3 217.9 148.7" fill-rule="evenodd" clip-rule="evenodd"/><path d="M234.1 145.4 225 171.2 220.7 169.9 230.1 144.7Z" fill="#FFEAE0" fill-rule="evenodd" clip-rule="evenodd"/><path d="M261.7 144.2 273.1 256.4 258 254.7 257.5 199.6 257.9 136Z" fill="#E8F078" fill-rule="evenodd" clip-rule="evenodd"/><path d="M263.7 164 301.1 244 323.8 232.1 308.4 209.9 261.7 144.2ZM257.5 199.6 239.6 231.8 229.6 250.2 258 254.7Z" fill="#D9E354" fill-rule="evenodd" clip-rule="evenodd"/><path d="M263.7 164 301.1 244 273.1 256.4 269.9 224.8 264.5 200.7Z" fill="#B8C745" fill-rule="evenodd" clip-rule="evenodd"/><path d="M206.8 177 219.1 185.6 235.3 186.1 217.9 190.4Z" fill="#99C26D" fill-rule="evenodd" clip-rule="evenodd"/><path d="M206.8 177 211.8 178.8 218.9 180 223.4 181.5 228.7 184.6 235.3 186.1 219.1 185.6Z" fill="#5A753D" fill-rule="evenodd" clip-rule="evenodd"/><path d="M212.1 117.4 221.1 117.4 221.1 126.4 212.1 126.4Z" fill="#35785D" fill-rule="evenodd" clip-rule="evenodd" transform="matrix(0.901 -0.4339 0.4339 0.901 -31.4554 106.043)"/><path d="M224 121.5 233 121.5 233 130.5 224 130.5Z" fill="#54B08B" fill-rule="evenodd" clip-rule="evenodd" transform="matrix(0.901 -0.4339 0.4339 0.901 -32.0562 111.601)"/><path d="M235.7 125.5 244.7 125.5 244.7 134.5 235.7 134.5Z" fill="#35785D" fill-rule="evenodd" clip-rule="evenodd" transform="matrix(0.901 -0.4339 0.4339 0.901 -32.6231 117.111)"/><path d="M247.5 129.7 256.5 129.7 256.5 138.7 247.5 138.7Z" fill="#54B08B" fill-rule="evenodd" clip-rule="evenodd" transform="matrix(0.901 -0.4339 0.4339 0.901 -33.278 122.627)"/><path d="M259.3 133.7 268.3 133.7 268.3 142.7 259.3 142.7Z" fill="#35785D" fill-rule="evenodd" clip-rule="evenodd" transform="matrix(0.901001 -0.433816 0.433816 0.901001 -33.8466 128.122)"/><path d="M271 137.8 280 137.8 280 146.8 271 146.8Z" fill="#54B08B" fill-rule="evenodd" clip-rule="evenodd" transform="matrix(0.901001 -0.433816 0.433816 0.901001 -34.4681 133.599)"/><path d="M282.7 141.8 291.7 141.8 291.7 150.8 282.7 150.8Z" fill="#35785D" fill-rule="evenodd" clip-rule="evenodd" transform="matrix(0.901001 -0.433816 0.433816 0.901001 -35.0347 139.093)"/><path d="M294.5 145.9 303.5 145.9 303.5 154.9 294.5 154.9Z" fill="#54B08B" fill-rule="evenodd" clip-rule="evenodd" transform="matrix(0.901001 -0.433816 0.433816 0.901001 -35.6459 144.614)"/><path d="M257.7 159.9 263.7 164 265.2 178.3 257.6 173.3Z" fill="#5A753D" fill-rule="evenodd" clip-rule="evenodd"/><path d="M257.6 173.3 265.2 178.3 266.2 188.7 257.6 183.9Z" fill="#99C26D" fill-rule="evenodd" clip-rule="evenodd"/><path d="M257.6 183.9 266.2 188.7 267.4 200.3 257.5 194.8Z" fill="#5A753D" fill-rule="evenodd" clip-rule="evenodd"/><path d="M257.5 194.8 267.4 200.3 268.7 213 257.5 206.6Z" fill="#99C26D" fill-rule="evenodd" clip-rule="evenodd"/><path d="M257.5 206.6 268.7 213 269.9 224.8 257.6 218Z" fill="#5A753D" fill-rule="evenodd" clip-rule="evenodd"/><path d="M186.4 410.9 195 402.8 206.3 410.9Z" fill="#EDC0A8" fill-rule="evenodd" clip-rule="evenodd"/><path d="M210.6 391.6 220.3 399.1 221 393.2 216.7 391.6Z" fill="#C4937D" fill-rule="evenodd" clip-rule="evenodd"/><path d="M279.7 420.1 277.3 402.3 267 401.2 263 406.4 254.3 419.3 262.3 417.8Z" fill="#FFDBC7" fill-rule="evenodd" clip-rule="evenodd"/><path d="M254.3 419.3 264 413.1 279.7 420.1Z" fill="#EDC0A8" fill-rule="evenodd" clip-rule="evenodd"/><path d="M266.9 400.7 263 406.4 277.3 402.3 271 400.7Z" fill="#C4937D" fill-rule="evenodd" clip-rule="evenodd"/><path d="M289.1 274.1 266.2 277.9 269.8 291.3 305 291.8 296.4 276.6Z" fill="#99C26D" fill-rule="evenodd" clip-rule="evenodd"/><path d="M301.1 244 305 291.8 273.1 256.4Z" fill="#728D56" fill-rule="evenodd" clip-rule="evenodd"/><path d="M266.2 277.9 247.7 277.9 255.4 292.7 269.8 291.3Z" fill="#FFDBC7" fill-rule="evenodd" clip-rule="evenodd"/><path d="M269.8 291.3 272.3 297.8 278.6 303.9 283.1 310.5 253 323.9 220.3 331.8 224.2 307.2 226 301.7 226 295.4Z" fill="#54B08B" fill-rule="evenodd" clip-rule="evenodd"/><path d="M220.3 331.8 283.1 310.5 279.2 368.2 246 353.3Z" fill="#3F8F6F" fill-rule="evenodd" clip-rule="evenodd"/><path d="M279.2 368.2 244.9 382.7 210.6 391.6 220.3 331.8Z" fill="#35785D" fill-rule="evenodd" clip-rule="evenodd"/><path d="M279.2 368.2 277.3 402.3 210.6 391.6Z" fill="#3F8F6F" fill-rule="evenodd" clip-rule="evenodd"/><path d="M254.6 280 263 292 255.4 292.7 249.6 281.4Z" fill="#C4937D" fill-rule="evenodd" clip-rule="evenodd"/><path d="M278.6 303.9 263.1 299 258.2 313.7 255.2 314.5 234.8 301.7 224.2 307.2 226 295.4 269.8 291.3Z" fill-rule="evenodd" clip-rule="evenodd" opacity="0.1"/><path d="M234.8 270.3 234.1 276.8 228.5 284.5 206.3 275.5 215.6 259.2Z" fill="#99C26D" fill-rule="evenodd" clip-rule="evenodd"/><path d="M234.6 270.2 239.4 272.9 241.8 280.2 239.7 289.5 228.5 284.5Z" fill="#EDC0A8" fill-rule="evenodd" clip-rule="evenodd"/><path d="M236.8 288.2 245.3 291.5 246.3 280 239.9 275Z" fill="#C4937D" fill-rule="evenodd" clip-rule="evenodd"/><path d="M240.3 269.1 253.2 269.1 253.2 282 240.3 282Z" fill="#3F8F6F" fill-rule="evenodd" clip-rule="evenodd" transform="matrix(0.9656 -0.2602 0.2602 0.9656 -63.1822 73.6816)"/><path d="M251.3 299.3 255.2 314.5 258.2 313.7 253.9 298.5Z" fill="#728D56" fill-rule="evenodd" clip-rule="evenodd"/><path d="M245.1 269.3 239.6 251.8 258 254.7 251.3 267.6ZM252 270.3 266.4 258.4 276.2 271.6 253.3 275ZM254 277.6 274.2 276.8 263 292 251.7 280.8 254.6 280ZM249.6 281.4 257.8 297.3 242.9 301.5 245.2 282.6ZM242.2 283.4 234.8 301.7 226 295.4 241.2 279.9ZM240.7 277.8 219.8 289.2 214 278.4 239.9 275ZM239.4 272.9 218 268.1 226 255.5 243.1 269.8 238.8 271Z" fill="#B8C745" fill-rule="evenodd" clip-rule="evenodd"/><path d="M242.2 271 251.3 271 251.3 280.1 242.2 280.1Z" fill="#D9E354" fill-rule="evenodd" clip-rule="evenodd" transform="matrix(0.4987 -0.866775 0.866775 0.4987 -115.109 351.958)"/></g></svg>